<?xml version="1.0" encoding="UTF-8"?>
<svg version="1.1" xmlns="http://www.w3.org/2000/svg" width="383" height="367">
<path d="M0 0 C126.39 0 252.78 0 383 0 C383 121.11 383 242.22 383 367 C256.61 367 130.22 367 0 367 C0 245.89 0 124.78 0 0 Z " fill="#DADADA" transform="translate(0,0)"/>
<path d="M0 0 C0.83011093 0.2554509 1.66022186 0.51090179 2.51548767 0.77409363 C4.27167292 1.31510198 6.02748914 1.85730953 7.78295898 2.40063477 C10.43059011 3.21986992 13.07943969 4.03505988 15.72851562 4.84960938 C24.65655722 7.60089546 33.56120032 10.39688015 42.40234375 13.41796875 C43.55404402 17.56617853 43.17624313 20.19421959 41.92578125 24.28515625 C41.41724609 25.97547974 41.41724609 25.97547974 40.8984375 27.69995117 C40.34349609 29.47849487 40.34349609 29.47849487 39.77734375 31.29296875 C39.40996094 32.49993408 39.04257812 33.70689941 38.6640625 34.95043945 C36.04964746 43.48799523 33.31634385 51.97824739 30.40234375 60.41796875 C31.31000488 60.4022583 32.21766602 60.38654785 33.15283203 60.37036133 C36.54107447 60.31903745 39.92889994 60.28152459 43.31738281 60.25317383 C44.7800145 60.23814679 46.24260157 60.2177192 47.70507812 60.19165039 C49.81521655 60.15499608 51.92475601 60.13818199 54.03515625 60.125 C55.93612061 60.10143433 55.93612061 60.10143433 57.87548828 60.07739258 C62.92001326 60.56452482 66.166244 62.19216983 69.74609375 65.7421875 C73.36012648 71.58089605 72.02124029 78.98070456 70.56640625 85.4375 C69.89300515 88.18481929 69.15872322 90.91295204 68.41015625 93.640625 C67.57722804 96.76249158 66.92272235 99.79669786 66.40234375 102.98046875 C65.70874383 107.10894231 64.7151314 111.07953663 63.59765625 115.11328125 C61.41285181 123.14877666 59.57557891 131.24837281 57.79248047 139.38110352 C57.27385979 141.74635791 56.75060869 144.1105517 56.2265625 146.47460938 C54.66244441 153.55239649 53.1112304 160.62423176 51.80126953 167.75463867 C51.40234375 169.41796875 51.40234375 169.41796875 50.40234375 170.41796875 C48.06207251 170.51559099 45.75135994 170.54794479 43.41062927 170.53822327 C42.67065187 170.53907769 41.93067447 170.53993212 41.16827351 170.54081243 C38.67001962 170.54246944 36.17183177 170.53694228 33.67358398 170.53149414 C31.89020794 170.53121229 30.10683178 170.53136996 28.32345581 170.53193665 C23.46622184 170.53222471 18.60901234 170.52632663 13.75178409 170.51936269 C8.68153427 170.51313054 3.61128394 170.51252546 -1.45896912 170.51133728 C-11.06729318 170.50822355 -20.67560593 170.50000961 -30.283925 170.48998779 C-41.21965153 170.47882794 -52.15537859 170.47331653 -63.0911094 170.46829236 C-85.59329797 170.45782703 -108.09547647 170.44022679 -130.59765625 170.41796875 C-130.28515102 168.68159097 -129.97174102 166.94537602 -129.65795898 165.20922852 C-129.48352768 164.24235611 -129.30909637 163.2754837 -129.12937927 162.27931213 C-128.38727905 158.28587292 -127.54456379 154.31949399 -126.66015625 150.35546875 C-126.48758301 149.57598877 -126.31500977 148.79650879 -126.13720703 147.9934082 C-125.2306273 143.97250484 -124.23660942 140.03206439 -122.97265625 136.10546875 C-121.45519308 131.35727755 -120.82276036 126.57870793 -120.12890625 121.65234375 C-119.49315467 117.78173854 -118.50887253 114.09597497 -117.37890625 110.34375 C-116.23947567 106.07658248 -115.44079837 101.75202173 -114.59765625 97.41796875 C-113.79648179 93.37396135 -112.98087713 89.33304985 -112.16015625 85.29296875 C-111.95583984 84.26042969 -111.75152344 83.22789062 -111.54101562 82.1640625 C-108.48399794 67.21229378 -108.48399794 67.21229378 -104.03515625 62.98046875 C-100.71895102 60.85469616 -99.04622435 60.29379233 -95.14794922 60.30444336 C-93.76674393 60.30455666 -93.76674393 60.30455666 -92.3576355 60.30467224 C-90.86382858 60.31241417 -90.86382858 60.31241417 -89.33984375 60.3203125 C-87.81256149 60.32243492 -87.81256149 60.32243492 -86.25442505 60.32460022 C-82.9938059 60.33020975 -79.73325474 60.34276387 -76.47265625 60.35546875 C-74.26562599 60.36048252 -72.05859466 60.36504564 -69.8515625 60.36914062 C-64.43357044 60.38018227 -59.0156182 60.3969297 -53.59765625 60.41796875 C-53.47086487 59.82656097 -53.34407349 59.2351532 -53.21343994 58.62582397 C-52.31391985 54.49316295 -51.38893732 50.42114502 -50.08203125 46.39453125 C-49.80367432 45.52755615 -49.52531738 44.66058105 -49.23852539 43.76733398 C-48.62861593 41.902171 -48.01841283 40.03710402 -47.40795898 38.17211914 C-45.86864117 33.44868445 -44.38384009 28.73356739 -43.0859375 23.9375 C-42.84456055 23.0801123 -42.60318359 22.22272461 -42.35449219 21.33935547 C-41.90509049 19.7316857 -41.47835897 18.11743289 -41.07910156 16.49658203 C-39.87698693 12.30955563 -38.67251285 10.06705956 -34.94921875 7.6953125 C-33.50895172 6.91691895 -32.05792882 6.15815094 -30.59765625 5.41796875 C-29.15447106 4.59033391 -27.71306379 3.75959122 -26.2734375 2.92578125 C-24.82070847 2.1284089 -23.36627265 1.33413834 -21.91015625 0.54296875 C-21.17732422 0.12789063 -20.44449219 -0.2871875 -19.68945312 -0.71484375 C-18.61727539 -1.29492188 -18.61727539 -1.29492188 -17.5234375 -1.88671875 C-16.57078003 -2.41241455 -16.57078003 -2.41241455 -15.59887695 -2.94873047 C-10.73610521 -4.4875898 -4.72207003 -1.46379202 0 0 Z " fill="#020202" transform="translate(223.59765625,79.58203125)"/>
<path d="M0 0 C0.68637039 -0.00671722 1.37274078 -0.01343445 2.07991028 -0.02035522 C4.35494169 -0.03939407 6.62967897 -0.04326247 8.90478516 -0.04541016 C10.48418297 -0.05183456 12.06357957 -0.05856265 13.64297485 -0.06558228 C16.95683552 -0.07757014 20.27059183 -0.08126161 23.58447266 -0.08007812 C27.83065621 -0.07987497 32.07617017 -0.10716578 36.32219505 -0.14162254 C39.58559236 -0.16386381 42.8488279 -0.16791651 46.11229324 -0.16685867 C47.67760143 -0.16921926 49.24291376 -0.17806857 50.80814743 -0.19352341 C52.99887636 -0.21312645 55.18815382 -0.20736919 57.37890625 -0.1953125 C58.62529877 -0.19816254 59.87169128 -0.20101257 61.15585327 -0.20394897 C65.5718229 0.48640711 67.03424126 2.55392981 69.58447266 6.00146484 C71.91684679 9.94428778 73.03860498 12.61210471 72.31884766 17.29052734 C71.45972083 19.93915248 70.51077558 22.52933029 69.48681641 25.11865234 C68.46508287 27.89339359 67.58769945 30.65600603 66.74584961 33.48876953 C66.344002 34.83802521 66.344002 34.83802521 65.93403625 36.21453857 C65.73102402 36.89961487 65.52801178 37.58469116 65.31884766 38.29052734 C63.41208252 38.31240112 63.41208252 38.31240112 61.46679688 38.3347168 C56.73653474 38.39282541 52.00674236 38.47005783 47.27685547 38.55297852 C45.23233685 38.58616875 43.18772791 38.61421898 41.14306641 38.63696289 C38.19866559 38.67061728 35.25508811 38.72293901 32.31103516 38.77880859 C31.40143036 38.78519852 30.49182556 38.79158844 29.55465698 38.798172 C22.92701872 38.95063894 18.63305974 40.15148124 13.63525391 44.77099609 C10.28705794 49.11977159 9.42547402 54.34504947 8.25634766 59.60302734 C8.00522217 60.67029053 7.75409668 61.73755371 7.49536133 62.8371582 C6.99097837 64.98728639 6.49354783 67.13905851 6.00341797 69.29248047 C5.40654769 71.90644874 4.78885723 74.5135156 4.15478516 77.11865234 C2.28726774 84.81532455 0.62693805 92.5411753 -0.89599609 100.31396484 C-1.81128121 104.97989029 -2.7729905 109.63584431 -3.74365234 114.29052734 C-3.90607422 115.07991699 -4.06849609 115.86930664 -4.23583984 116.68261719 C-5.19953931 121.28663264 -6.33272508 125.78378377 -7.68115234 130.29052734 C-8.01115234 130.29052734 -8.34115234 130.29052734 -8.68115234 130.29052734 C-8.72782694 113.63595066 -8.76311886 96.98139511 -8.78477669 80.32676888 C-8.79509908 72.59412579 -8.80917773 64.86152329 -8.83203125 57.12890625 C-8.85193574 50.39091143 -8.86486177 43.652946 -8.86932933 36.9149226 C-8.87194172 33.34559993 -8.87810179 29.77636135 -8.89261246 26.20706558 C-8.90866166 22.22722013 -8.90913393 18.24745771 -8.90820312 14.26757812 C-8.91539368 13.07787415 -8.92258423 11.88817017 -8.92999268 10.66241455 C-8.92724335 9.5826535 -8.92449402 8.50289246 -8.92166138 7.39041138 C-8.92350496 6.44833895 -8.92534855 5.50626652 -8.927248 4.53564644 C-8.34540382 -0.77249063 -4.36983235 0.02676237 0 0 Z " fill="#010101" transform="translate(101.68115234375,97.70947265625)"/>
<path d="M0 0 C7.73555166 1.10507881 7.73555166 1.10507881 11.1875 2.6875 C16.3320978 4.85738404 21.58710253 6.43209449 26.9375 8 C34.05918191 10.08942179 41.07997839 12.30182644 48 15 C47.30508807 20.62415393 45.52176081 25.73206743 43.6875 31.0625 C43.05217346 32.93448495 42.41805702 34.80688103 41.78515625 36.6796875 C41.47852051 37.58686523 41.17188477 38.49404297 40.85595703 39.42871094 C39.39205246 43.82627026 38.05147456 48.2578831 36.7265625 52.69921875 C36 55 36 55 35 57 C22.44305954 57.59524586 11.74936467 57.17852615 -0.04541016 52.71875 C-3.48831164 51.45271178 -6.9959595 50.39479275 -10.5 49.3125 C-11.7478125 48.91675781 -12.995625 48.52101562 -14.28125 48.11328125 C-18.16747722 46.94986239 -22.05811213 45.9549485 -26 45 C-26 45.99 -26 46.98 -26 48 C-24.85337891 48.23783203 -24.85337891 48.23783203 -23.68359375 48.48046875 C-14.88271757 50.39738643 -6.49298897 53.0280412 2 56 C2 56.33 2 56.66 2 57 C-19.72340426 57.57446809 -19.72340426 57.57446809 -29 54 C-29 54.99 -29 55.98 -29 57 C-31.31 57 -33.62 57 -36 57 C-33.18514313 45.61818742 -29.62228146 34.56251706 -25.83935547 23.46972656 C-24.54198813 19.65234204 -23.27027671 15.82646965 -22 12 C-14.25 12.875 -14.25 12.875 -12 14 C-9.69 14 -7.38 14 -5 14 C-3.35 9.38 -1.7 4.76 0 0 Z " fill="#E2E2E2" transform="translate(212,83)"/>
<path d="M0 0 C3.75212276 2.01502889 5.63644095 3.45466142 8 7 C8.73545723 11.96861222 8.50048991 15.96194685 6.3125 20.5 C2.88744478 24.2027624 0.49328073 24.80994609 -4.4375 25.4375 C-9.0528695 24.87070024 -10.81844064 23.32953887 -14 20 C-16.62722285 16.00205219 -16.17737584 11.90331177 -15.6171875 7.3125 C-15 5 -15 5 -12.5625 2.4375 C-8.28865495 0.03997717 -4.90414839 -0.67454829 0 0 Z " fill="#D7D7D7" transform="translate(285,291)"/>
<path d="M0 0 C0.33 0 0.66 0 1 0 C1.33 26.4 1.66 52.8 2 80 C3.98 80.99 5.96 81.98 8 83 C8 82.01 8 81.02 8 80 C8.99 80 9.98 80 11 80 C9.90191874 89.11696418 8.19564347 97.88372853 6.01171875 106.7890625 C4.75925969 111.9098612 3.73092847 117.07023327 2.7109375 122.2421875 C2 125 2 125 0 128 C0 85.76 0 43.52 0 0 Z " fill="#1B1B1B" transform="translate(93,100)"/>
<path d="M0 0 C2.206875 -0.061875 4.41375 -0.12375 6.6875 -0.1875 C8.54955078 -0.23970703 8.54955078 -0.23970703 10.44921875 -0.29296875 C14.49607131 0.04092998 17.11242948 1.11242948 20 4 C20.3125 6.8125 20.3125 6.8125 20 10 C18 12.375 18 12.375 16 14 C16.433125 15.0828125 16.433125 15.0828125 16.875 16.1875 C17.91666667 18.79166667 18.95833333 21.39583333 20 24 C18.14453125 23.75 18.14453125 23.75 16 23 C14.76171875 21.1875 14.76171875 21.1875 13.6875 19 C12.50713935 16.80674035 12.50713935 16.80674035 11 15 C7.33054374 13.86521513 7.33054374 13.86521513 4 14 C4 17.63 4 21.26 4 25 C2.68 25 1.36 25 0 25 C0 16.75 0 8.5 0 0 Z " fill="#242424" transform="translate(146,291)"/>
<path d="M0 0 C3.6196875 -0.0928125 3.6196875 -0.0928125 7.3125 -0.1875 C8.44619019 -0.22846802 8.44619019 -0.22846802 9.6027832 -0.27026367 C12.48849704 -0.30620466 14.51150355 -0.32436164 16.953125 1.296875 C18.75760114 4.23251528 18.40964231 6.66434115 18 10 C16.6875 12.4375 16.6875 12.4375 14 14 C10.30892873 14.32396453 6.69472631 14.22932784 3 14 C3 16.97 3 19.94 3 23 C2.01 23 1.02 23 0 23 C0 15.41 0 7.82 0 0 Z " fill="#0B0B0B" transform="translate(96,292)"/>
<path d="M0 0 C3.12813702 2.10967381 4.31095599 3.2946653 5.6875 6.8125 C6.44532024 10.88482693 6.59746819 14.27299407 4.4453125 17.9140625 C1.97405834 20.90169813 0.42178459 22.56773847 -3.3125 23.8125 C-9.01874783 24.35082527 -11.8680466 23.43007835 -16.3125 19.8125 C-19.4433385 15.11624225 -19.2440791 10.29365142 -18.3125 4.8125 C-14.0068716 -2.29374991 -7.30299334 -2.61805422 0 0 Z M-13.875 3.75 C-15.82521713 7.90481041 -16.09546813 11.30227731 -15.3125 15.8125 C-14.02985902 19.00025608 -14.02985902 19.00025608 -11.3125 20.8125 C-7.42856978 21.63226396 -4.37255757 21.38330023 -0.875 19.5 C2.20254369 16.17625281 2.03705658 12.27106162 1.953125 7.9765625 C1.8056268 5.64337631 1.8056268 5.64337631 0.25 3.25 C-4.52907175 0.56905731 -9.45543065 0.40837439 -13.875 3.75 Z " fill="#0C0C0C" transform="translate(231.3125,292.1875)"/>
<path d="M0 0 C3.6116511 1.29037631 6.32952288 2.95055755 8.4375 6.25 C10.22466062 14.9872297 10.22466062 14.9872297 7.76171875 19.03515625 C5.28136525 22.03250651 3.75078384 23.74973872 0 25 C-4.25160217 25.40109454 -6.5006973 25.26378256 -10.3125 23.25 C-13.49697644 20.5839267 -14.72861859 18.73112772 -15.37109375 14.6328125 C-15.489301 10.1687503 -15.54314445 6.99264353 -12.625 3.4375 C-8.6214478 -0.28008418 -5.34505902 -0.69341306 0 0 Z M-10.5625 5 C-12.40331237 8.84169538 -12.71878226 11.81415036 -12 16 C-10.27032287 19.74547604 -10.27032287 19.74547604 -7 22 C-2.78583959 22.47707476 -0.67635208 22.43171409 2.9375 20.125 C5.82788066 15.74563537 5.89550934 12.10612535 5 7 C3.76922685 4.18573025 3.76922685 4.18573025 1 3 C-3.57998356 2.13442513 -6.81982879 2.07889076 -10.5625 5 Z " fill="#1B1B1B" transform="translate(133,291)"/>
<path d="M0 0 C3.75212276 2.01502889 5.63644095 3.45466142 8 7 C8.73545723 11.96861222 8.50048991 15.96194685 6.3125 20.5 C2.88744478 24.2027624 0.49328073 24.80994609 -4.4375 25.4375 C-9.0528695 24.87070024 -10.81844064 23.32953887 -14 20 C-16.62722285 16.00205219 -16.17737584 11.90331177 -15.6171875 7.3125 C-15 5 -15 5 -12.5625 2.4375 C-8.28865495 0.03997717 -4.90414839 -0.67454829 0 0 Z M-10.5 4.375 C-12.85207788 8.49113629 -12.71647182 12.38024942 -12 17 C-10.73680006 20.24790764 -10.73680006 20.24790764 -8 22 C-5.19763746 22.63742263 -2.80230535 22.63871847 0 22 C2.43119623 20.12984906 3.64069173 18.71861655 5 16 C5.59420843 10.12435706 5.59420843 10.12435706 3 5 C-1.56994961 1.95336693 -5.49331413 1.62132277 -10.5 4.375 Z " fill="#1A1A1A" transform="translate(285,291)"/>
<path d="M0 0 C4.63097179 0.79980536 6.21408798 3.31054894 9 7 C10.1898306 9.3796612 10.13349966 10.91485735 10.125 13.5625 C10.12757813 14.36816406 10.13015625 15.17382812 10.1328125 16.00390625 C10 18 10 18 9 19 C6.64686445 19.07271741 4.29166332 19.08370868 1.9375 19.0625 C0.64714844 19.05347656 -0.64320313 19.04445312 -1.97265625 19.03515625 C-2.97167969 19.02355469 -3.97070312 19.01195312 -5 19 C-3.9559635 12.31816637 -2.5957524 6.2534035 0 0 Z " fill="#0D0D0D" transform="translate(265,117)"/>
<path d="M0 0 C4.21847343 0.74206416 8.24029209 1.94870622 12.3125 3.25 C13.00674072 3.46889893 13.70098145 3.68779785 14.41625977 3.91333008 C17.33310237 4.83331543 20.24790401 5.75955359 23.16113281 6.69091797 C33.5202706 10.00426209 33.5202706 10.00426209 44.09375 12.53125 C47.24610899 13.30642024 50.06534034 14.62632952 53 16 C53 16.99 53 17.98 53 19 C46.93884204 18.54517169 41.63894634 17.44637439 35.9375 15.375 C27.30953279 12.36174781 18.58329804 9.78151223 9.79663086 7.27294922 C8.31948608 6.84973389 8.31948608 6.84973389 6.8125 6.41796875 C5.49185547 6.04321411 5.49185547 6.04321411 4.14453125 5.66088867 C2 5 2 5 0 4 C0 2.68 0 1.36 0 0 Z " fill="#212121" transform="translate(189,118)"/>
<path d="M0 0 C0.46845275 7.84224602 -0.93679633 14.46930659 -3 22 C-5.04319515 30.28295289 -6.70846977 38.5670673 -8 47 C-8.99 46.67 -9.98 46.34 -11 46 C-11.66 46.66 -12.32 47.32 -13 48 C-12.48900202 41.86802423 -11.37786755 36.19543184 -9.82421875 30.24609375 C-8.12639025 23.55938531 -6.66558444 16.7913662 -5.47265625 9.99609375 C-5.31667969 9.11050781 -5.16070312 8.22492188 -5 7.3125 C-4.87625 6.54550781 -4.7525 5.77851563 -4.625 4.98828125 C-3.94955409 2.83951894 -2.59495267 0 0 0 Z " fill="#CDCDCD" transform="translate(110,167)"/>
<path d="M0 0 C3.78784572 0.59185089 7.11527009 1.74630402 10.64453125 3.18359375 C13.29952376 4.10381504 15.99487571 4.73136526 18.72290039 5.39526367 C22.9876938 6.52787794 27.13979349 8.00833575 31.3125 9.4375 C38.4846372 11.86498295 45.64179552 14.19060546 53 16 C53 16.99 53 17.98 53 19 C44.21923732 18.529602 36.27108537 15.76064423 28 13 C27.23316895 12.74492676 26.46633789 12.48985352 25.67626953 12.22705078 C22.55995271 11.18956811 19.44428113 10.15024428 16.33081055 9.10424805 C10.91947211 7.28976364 5.48745601 5.57178388 0 4 C0 2.68 0 1.36 0 0 Z " fill="#1D1D1D" transform="translate(192,109)"/>
<path d="M0 0 C8.98472079 2.67716285 17.95372588 5.40593815 26.89453125 8.2265625 C35.56003113 10.95778178 44.24967041 13.55264219 53 16 C53 16.99 53 17.98 53 19 C44.95199105 18.56885666 37.7235844 16.1901274 30.13037109 13.69384766 C27.35446343 12.78975304 24.56676554 11.92631844 21.77758789 11.06420898 C14.48448943 8.80997855 7.22946862 6.4508994 0 4 C0 2.68 0 1.36 0 0 Z " fill="#1E1E1E" transform="translate(195,100)"/>
<path d="M0 0 C1.38773872 0.00424484 1.38773872 0.00424484 2.80351257 0.00857544 C5.74804817 0.01973858 8.69227563 0.04483613 11.63671875 0.0703125 C13.63736539 0.08034729 15.63801681 0.08947227 17.63867188 0.09765625 C22.53397225 0.11966528 27.42904332 0.15416859 32.32421875 0.1953125 C32.32421875 0.5253125 32.32421875 0.8553125 32.32421875 1.1953125 C18.79421875 1.5253125 5.26421875 1.8553125 -8.67578125 2.1953125 C-9.00578125 3.1853125 -9.33578125 4.1753125 -9.67578125 5.1953125 C-11.09890625 6.030625 -11.09890625 6.030625 -12.55078125 6.8828125 C-18.68868245 11.42485939 -19.44953824 20.03308137 -20.86328125 27.1953125 C-21.04052734 28.06542969 -21.21777344 28.93554688 -21.40039062 29.83203125 C-21.83136227 31.95194583 -22.25440716 34.07346937 -22.67578125 36.1953125 C-23.33578125 34.8753125 -23.99578125 33.5553125 -24.67578125 32.1953125 C-25.66578125 32.6903125 -25.66578125 32.6903125 -26.67578125 33.1953125 C-25.81896633 22.69932973 -24.01268914 11.45196975 -16.5546875 3.61328125 C-11.36583728 -0.30262858 -6.22727484 -0.07199243 0 0 Z " fill="#D4D4D4" transform="translate(133.67578125,135.8046875)"/>
<path d="M0 0 C5.94 0 11.88 0 18 0 C18 0.99 18 1.98 18 3 C13.38 3 8.76 3 4 3 C4 5.97 4 8.94 4 12 C8.29 12 12.58 12 17 12 C17 12.99 17 13.98 17 15 C12.71 15 8.42 15 4 15 C4 18.3 4 21.6 4 25 C2.68 24.67 1.36 24.34 0 24 C0 16.08 0 8.16 0 0 Z " fill="#393939" transform="translate(192,291)"/>
<path d="M0 0 C1.32 0 2.64 0 4 0 C4.495 2.475 4.495 2.475 5 5 C4.38125 5.2475 3.7625 5.495 3.125 5.75 C0.64931313 7.20628639 0.04874998 8.37812506 -1 11 C-1.99 11 -2.98 11 -4 11 C-4 11.99 -4 12.98 -4 14 C1.94 14 7.88 14 14 14 C14 14.33 14 14.66 14 15 C0.14 15 -13.72 15 -28 15 C-28 14.67 -28 14.34 -28 14 C-21.565 13.505 -21.565 13.505 -15 13 C-15 12.34 -15 11.68 -15 11 C-13.68 11 -12.36 11 -11 11 C-8.28873616 9.57378316 -8.28873616 9.57378316 -6 8 C-6.66 6.68 -7.32 5.36 -8 4 C-5.69 4 -3.38 4 -1 4 C-0.67 2.68 -0.34 1.36 0 0 Z " fill="#141414" transform="translate(153,121)"/>
<path d="M0 0 C6.6 0 13.2 0 20 0 C20 0.99 20 1.98 20 3 C17.03 3 14.06 3 11 3 C11 10.26 11 17.52 11 25 C10.01 25 9.02 25 8 25 C8 17.74 8 10.48 8 3 C5.36 3 2.72 3 0 3 C0 2.01 0 1.02 0 0 Z " fill="#212121" transform="translate(169,291)"/>
<path d="M0 0 C1.79133978 -0.05391993 3.58313899 -0.09275571 5.375 -0.125 C6.37273437 -0.14820313 7.37046875 -0.17140625 8.3984375 -0.1953125 C11 0 11 0 13 2 C12.75 5.0625 12.75 5.0625 12 8 C9.47524538 9.26237731 7.68799534 9.09856404 4.875 9.0625 C3.96492187 9.05347656 3.05484375 9.04445313 2.1171875 9.03515625 C1.41851562 9.02355469 0.71984375 9.01195312 0 9 C0 6.03 0 3.06 0 0 Z " fill="#D7D7D7" transform="translate(150,294)"/>
<path d="M0 0 C1.62463842 -0.05395478 3.24978541 -0.09277195 4.875 -0.125 C5.77992187 -0.14820313 6.68484375 -0.17140625 7.6171875 -0.1953125 C10 0 10 0 12 2 C12.25 4.5 12.25 4.5 12 7 C10 9 10 9 7.6171875 9.1953125 C6.71226563 9.17210937 5.80734375 9.14890625 4.875 9.125 C3.50988281 9.09792969 3.50988281 9.09792969 2.1171875 9.0703125 C1.41851562 9.04710937 0.71984375 9.02390625 0 9 C0 6.03 0 3.06 0 0 Z " fill="#D7D7D7" transform="translate(99,294)"/>
<path d="M0 0 C1.32 0.66 2.64 1.32 4 2 C4 2.99 4 3.98 4 5 C3.01 5 2.02 5 1 5 C0.67 6.32 0.34 7.64 0 9 C-1.65 9 -3.3 9 -5 9 C-4.34 9.33 -3.68 9.66 -3 10 C-3 12 -3 12 -5.375 14.625 C-8 17 -8 17 -10 17 C-10 16.34 -10 15.68 -10 15 C-9.34 15 -8.68 15 -8 15 C-8 14.34 -8 13.68 -8 13 C-9.65 13.33 -11.3 13.66 -13 14 C-13.33 12.68 -13.66 11.36 -14 10 C-13.01 9.67 -12.02 9.34 -11 9 C-11 9.66 -11 10.32 -11 11 C-10.34 10.67 -9.68 10.34 -9 10 C-9 9.01 -9 8.02 -9 7 C-8.01 6.67 -7.02 6.34 -6 6 C-5.34 5.01 -4.68 4.02 -4 3 C-3.01 3 -2.02 3 -1 3 C-0.67 2.01 -0.34 1.02 0 0 Z " fill="#0B0B0B" transform="translate(122,224)"/>
<path d="M0 0 C0.99 0 1.98 0 3 0 C3 7.26 3 14.52 3 22 C6.96 22 10.92 22 15 22 C15 22.66 15 23.32 15 24 C10.05 24 5.1 24 0 24 C0 16.08 0 8.16 0 0 Z " fill="#151515" transform="translate(241,291)"/>
<path d="M0 0 C6.40331132 -0.44935518 9.78969647 0.14437539 15 4 C17.61276493 8.0895451 17.15943976 12.29652707 17 17 C15.66666667 17 14.33333333 17 13 17 C12.96261719 16.31292969 12.92523438 15.62585938 12.88671875 14.91796875 C12.82097656 14.01691406 12.75523437 13.11585938 12.6875 12.1875 C12.62949219 11.29417969 12.57148438 10.40085937 12.51171875 9.48046875 C11.92512144 6.63703904 11.33921806 5.68097298 9 4 C7.824375 3.835 6.64875 3.67 5.4375 3.5 C4.303125 3.335 3.16875 3.17 2 3 C1.34 2.01 0.68 1.02 0 0 Z " fill="#222222" transform="translate(125,291)"/>
<path d="M0 0 C14.78132118 2.89066059 14.78132118 2.89066059 21 6 C21 6.99 21 7.98 21 9 C12.20753786 8.52897524 4.29384797 5.75783166 -4 3 C-2.68 2.34 -1.36 1.68 0 1 C0 0.67 0 0.34 0 0 Z " fill="#272727" transform="translate(221,128)"/>
<path d="M0 0 C0.99 0 1.98 0 3 0 C3 8.25 3 16.5 3 25 C2.01 25 1.02 25 0 25 C0 16.75 0 8.5 0 0 Z " fill="#151515" transform="translate(261,291)"/>
<path d="M0 0 C5.20779483 -0.54818893 8.87055316 0.97138125 13.53515625 3.02734375 C16.01885265 4.00743948 18.37254602 4.55506573 21 5 C20.01 5.495 20.01 5.495 19 6 C19.33 6.99 19.66 7.98 20 9 C13.24947898 7.22089072 6.59379663 5.29561809 0 3 C0 2.01 0 1.02 0 0 Z " fill="#212121" transform="translate(186,128)"/>
<path d="M0 0 C3.83473284 -0.35671933 5.55342875 -0.29771416 8.8125 1.875 C11.18351451 4.17827124 11.93095115 5.04937402 12.16796875 8.3125 C12.17441406 9.199375 12.18085938 10.08625 12.1875 11 C12.20167969 11.886875 12.21585937 12.77375 12.23046875 13.6875 C12 16 12 16 10 18 C9.01 18.33 8.02 18.66 7 19 C7.165 18.505 7.33 18.01 7.5 17.5 C8.20765045 13.96174775 8.53971076 10.58574957 8 7 C6.35380651 4.60371845 6.35380651 4.60371845 4 3 C3.2575 2.4225 2.515 1.845 1.75 1.25 C1.1725 0.8375 0.595 0.425 0 0 Z " fill="#101010" transform="translate(281,292)"/>
<path d="M0 0 C1.32 0.33 2.64 0.66 4 1 C4.625 2.875 4.625 2.875 5 5 C4.34 5.66 3.68 6.32 3 7 C2.01 7 1.02 7 0 7 C-0.33 8.32 -0.66 9.64 -1 11 C-4 11 -4 11 -6.1875 9.125 C-8 7 -8 7 -8 5 C-5.69 5 -3.38 5 -1 5 C-0.67 3.35 -0.34 1.7 0 0 Z " fill="#0B0B0B" transform="translate(224,191)"/>
<path d="M0 0 C5.56663461 -0.28792938 9.2172507 -0.22557511 14 3 C17.74820524 7.24796594 17.31529048 11.64006186 17 17 C16.67 17 16.34 17 16 17 C16 14.36 16 11.72 16 9 C15.34 9 14.68 9 14 9 C14 11.31 14 13.62 14 16 C13.67 16 13.34 16 13 16 C12.96261719 15.38511719 12.92523438 14.77023437 12.88671875 14.13671875 C12.78810547 12.92435547 12.78810547 12.92435547 12.6875 11.6875 C12.62949219 10.88699219 12.57148438 10.08648437 12.51171875 9.26171875 C11.90305114 6.57150086 11.20611471 5.62636828 9 4 C7.824375 3.835 6.64875 3.67 5.4375 3.5 C4.303125 3.335 3.16875 3.17 2 3 C1.34 2.01 0.68 1.02 0 0 Z " fill="#2A2A2A" transform="translate(220,291)"/>
<path d="M0 0 C2 2 2 2 2.4375 5.375 C2 9 2 9 -0.5 11.4375 C-1.325 11.953125 -2.15 12.46875 -3 13 C-3 12.34 -3 11.68 -3 11 C-6.3 11 -9.6 11 -13 11 C-13 10.67 -13 10.34 -13 10 C-12.28972656 9.93941406 -11.57945313 9.87882812 -10.84765625 9.81640625 C-9.92855469 9.73261719 -9.00945312 9.64882813 -8.0625 9.5625 C-7.14597656 9.48128906 -6.22945313 9.40007812 -5.28515625 9.31640625 C-3.03840268 9.23955024 -3.03840268 9.23955024 -2 8 C-1.83333333 5.5 -1.83333333 5.5 -2 3 C-3.66342837 1.33657163 -5.7825709 1.63951903 -8.0625 1.4375 C-9.44115234 1.31181641 -9.44115234 1.31181641 -10.84765625 1.18359375 C-11.91306641 1.09271484 -11.91306641 1.09271484 -13 1 C-13 0.67 -13 0.34 -13 0 C-11.58456585 -0.19658808 -10.16755969 -0.38187546 -8.75 -0.5625 C-7.96109375 -0.66691406 -7.1721875 -0.77132813 -6.359375 -0.87890625 C-3.94893974 -1.00262064 -2.2664992 -0.80877215 0 0 Z " fill="#212121" transform="translate(112,293)"/>
<path d="M0 0 C3.15857693 0.49352765 5.97596962 1.33471453 8.9375 2.5 C12.26881005 3.79586065 15.4384304 4.5548038 19 5 C18.01 5.33 17.02 5.66 16 6 C16.33 6.99 16.66 7.98 17 9 C10.76559832 7.41039668 4.83712355 5.72399099 -1 3 C-0.67 2.01 -0.34 1.02 0 0 Z " fill="#222222" transform="translate(192,109)"/>
<path d="M0 0 C0.66 0 1.32 0 2 0 C2.47676175 4.76761753 2.83824 8.63232515 -0.3125 12.5 C-4.44756988 16.34657663 -7.53753171 16.10306544 -13 16 C-12.67 15.01 -12.34 14.02 -12 13 C-10.22265625 12.41015625 -10.22265625 12.41015625 -8.0625 12.0625 C-4.69357363 11.44346706 -4.69357363 11.44346706 -2.5 8.875 C-2.335 8.25625 -2.17 7.6375 -2 7 C-1.34 7 -0.68 7 0 7 C0 4.69 0 2.38 0 0 Z " fill="#1A1A1A" transform="translate(234,300)"/>
<path d="M0 0 C5.28 0 10.56 0 16 0 C16 0.66 16 1.32 16 2 C11.71 2 7.42 2 3 2 C3 4.97 3 7.94 3 11 C2.01 11 1.02 11 0 11 C0 7.37 0 3.74 0 0 Z " fill="#1A1A1A" transform="translate(193,292)"/>
<path d="M0 0 C2 2 2 2 2.375 4.875 C1.92491816 8.62568199 0.87398748 9.66488517 -2 12 C-2.66 11.01 -3.32 10.02 -4 9 C-3.34 9 -2.68 9 -2 9 C-1.95745644 7.00045254 -1.95919217 4.99958364 -2 3 C-3.73956658 1.26043342 -6.1936622 1.62809614 -8.5625 1.4375 C-9.57441406 1.35371094 -10.58632812 1.26992188 -11.62890625 1.18359375 C-12.80259766 1.09271484 -12.80259766 1.09271484 -14 1 C-14 0.67 -14 0.34 -14 0 C-12.41773035 -0.19627391 -10.83410729 -0.38165538 -9.25 -0.5625 C-8.36828125 -0.66691406 -7.4865625 -0.77132813 -6.578125 -0.87890625 C-4.07328032 -0.99655805 -2.34614066 -0.85175107 0 0 Z " fill="#181818" transform="translate(164,293)"/>
<path d="M0 0 C0.33 1.32 0.66 2.64 1 4 C2.32 3.67 3.64 3.34 5 3 C4.67 3.99 4.34 4.98 4 6 C3.01 6 2.02 6 1 6 C0.896875 6.639375 0.79375 7.27875 0.6875 7.9375 C0.460625 8.618125 0.23375 9.29875 0 10 C-0.99 10.33 -1.98 10.66 -3 11 C-3.99 10.34 -4.98 9.68 -6 9 C-5.67 7.68 -5.34 6.36 -5 5 C-3.68 4.67 -2.36 4.34 -1 4 C-0.67 2.68 -0.34 1.36 0 0 Z " fill="#0A0A0A" transform="translate(260,227)"/>
<path d="M0 0 C6.20988129 0.44356295 10.60540561 1.91532502 16 5 C16 5.33 16 5.66 16 6 C9.741346 6.5326514 5.54891215 4.81849506 0 2 C0 1.34 0 0.68 0 0 Z " fill="#121212" transform="translate(208,115)"/>
<path d="M0 0 C0.99 0 1.98 0 3 0 C3.33 0.99 3.66 1.98 4 3 C4.66 3.33 5.32 3.66 6 4 C6 4.66 6 5.32 6 6 C5.01 6 4.02 6 3 6 C2.896875 6.639375 2.79375 7.27875 2.6875 7.9375 C2.460625 8.618125 2.23375 9.29875 2 10 C1.01 10.33 0.02 10.66 -1 11 C-1 10.34 -1 9.68 -1 9 C-0.34 9 0.32 9 1 9 C1 8.34 1 7.68 1 7 C-0.65 7.33 -2.3 7.66 -4 8 C-3.67 7.01 -3.34 6.02 -3 5 C-2.01 4.67 -1.02 4.34 0 4 C0 2.68 0 1.36 0 0 Z " fill="#0C0C0C" transform="translate(232,181)"/>
<path d="M0 0 C-2.6010386 3.90155791 -4.56000881 3.85172642 -9 5 C-10.34050052 5.65213539 -11.67661368 6.31379969 -13 7 C-13.66 7 -14.32 7 -15 7 C-14.00449135 4.3754772 -13.06036546 3.04971273 -10.875 1.25 C-7.01724826 -0.42728337 -4.18486798 -0.2127899 0 0 Z " fill="#242424" transform="translate(285,291)"/>
<path d="M0 0 C0.928125 0.2784375 0.928125 0.2784375 1.875 0.5625 C4.04160178 1.23686176 4.04160178 1.23686176 6 0 C6 0.99 6 1.98 6 3 C7.32 3.33 8.64 3.66 10 4 C9.01 4.33 8.02 4.66 7 5 C7 5.66 7 6.32 7 7 C5.02 7.33 3.04 7.66 1 8 C1.20625 7.4225 1.4125 6.845 1.625 6.25 C2.08661261 3.48032433 1.42944945 2.35438733 0 0 Z " fill="#090909" transform="translate(175,236)"/>
<path d="M0 0 C1.65 0.33 3.3 0.66 5 1 C4.01 1.33 3.02 1.66 2 2 C2 2.66 2 3.32 2 4 C3.65 3.67 5.3 3.34 7 3 C6.34 4.65 5.68 6.3 5 8 C1.37 7.01 -2.26 6.02 -6 5 C-6 4.67 -6 4.34 -6 4 C-4.02 4 -2.04 4 0 4 C0 2.68 0 1.36 0 0 Z " fill="#1E1E1E" transform="translate(255,90)"/>
<path d="M0 0 C5.94 0 11.88 0 18 0 C17.67 0.66 17.34 1.32 17 2 C11.06 2.33 5.12 2.66 -1 3 C-0.67 2.01 -0.34 1.02 0 0 Z " fill="#EAEAEA" transform="translate(125,137)"/>
<path d="M0 0 C5.27749285 0.53851968 9.25645564 1.77343836 14 4 C13.67 4.66 13.34 5.32 13 6 C11.01739401 5.57835981 9.03892755 5.13721222 7.0625 4.6875 C5.96035156 4.44386719 4.85820312 4.20023438 3.72265625 3.94921875 C2.82417969 3.63597656 1.92570313 3.32273438 1 3 C0.67 2.01 0.34 1.02 0 0 Z " fill="#111111" transform="translate(208,125)"/>
<path d="M0 0 C2.46800047 1.15173355 4.04783565 2.04783565 6 4 C5.8125 6 5.8125 6 5 8 C4.01 8.66 3.02 9.32 2 10 C-0.4294516 6.3558226 -0.16179575 4.28758728 0 0 Z " fill="#0B0B0B" transform="translate(209,203)"/>
<path d="M0 0 C-0.40992187 0.42410156 -0.81984375 0.84820312 -1.2421875 1.28515625 C-5.03077668 5.40909902 -6.87908934 8.50753777 -8 14 C-8.33 14 -8.66 14 -9 14 C-9.62068966 4.96551724 -9.62068966 4.96551724 -7.3125 1.375 C-4.63064217 -0.21961817 -3.06890491 -0.34098943 0 0 Z " fill="#0C0C0C" transform="translate(128,292)"/>
<path d="M0 0 C0.75 1.75 0.75 1.75 1 4 C-0.375 6.25 -0.375 6.25 -3 8 C-6.02991489 8.33318652 -8.96503351 8.23345896 -12 8 C-12 7.67 -12 7.34 -12 7 C-10.700625 6.6596875 -10.700625 6.6596875 -9.375 6.3125 C-5.38221186 4.75974905 -3.15751695 2.85680105 0 0 Z " fill="#131313" transform="translate(139,307)"/>
<path d="M0 0 C2.74277578 3.19990508 4.6302836 6.00499382 6 10 C4.1875 9.8125 4.1875 9.8125 2 9 C0.1875 6.6875 0.1875 6.6875 -1 4 C-0.6875 1.6875 -0.6875 1.6875 0 0 Z " fill="#1C1C1C" transform="translate(160,305)"/>
<path d="M0 0 C3.63 0 7.26 0 11 0 C10.01 0.33 9.02 0.66 8 1 C7.26676204 3.01508358 7.26676204 3.01508358 7 5 C6.01 5 5.02 5 4 5 C4.66 4.01 5.32 3.02 6 2 C4.35 2.33 2.7 2.66 1 3 C0.67 2.01 0.34 1.02 0 0 Z " fill="#0B0B0B" transform="translate(104,98)"/>
<path d="M0 0 C-1.98 2.31 -3.96 4.62 -6 7 C-6.66 6.67 -7.32 6.34 -8 6 C-8.66 6.99 -9.32 7.98 -10 9 C-9.65544802 5.89903219 -9.15182706 4.20062862 -7.25 1.6875 C-4.58761061 -0.30929204 -3.25047681 -0.36116409 0 0 Z " fill="#1A1A1A" transform="translate(223,292)"/>
<path d="M0 0 C2.99775644 0.24471481 5.30677828 0.65338914 8 2 C7.67 2.99 7.34 3.98 7 5 C3.7 4.34 0.4 3.68 -3 3 C-2.01 2.01 -1.02 1.02 0 0 Z " fill="#292929" transform="translate(223,119)"/>
<path d="M0 0 C6.625 -0.125 6.625 -0.125 10 1 C10 1.99 10 2.98 10 4 C6.44219804 3.39009109 3.3171411 2.4216319 0 1 C0 0.67 0 0.34 0 0 Z " fill="#0F0F0F" transform="translate(238,115)"/>
<path d="M0 0 C0.99 0.33 1.98 0.66 3 1 C3.6875 3.0625 3.6875 3.0625 4 5 C2.02 5 0.04 5 -2 5 C-1.125 1.125 -1.125 1.125 0 0 Z " fill="#0A0A0A" transform="translate(243,244)"/>
<path d="M0 0 C2.475 0.495 2.475 0.495 5 1 C5 1.66 5 2.32 5 3 C5.99 3 6.98 3 8 3 C7.67 3.99 7.34 4.98 7 6 C3.63279613 4.60667426 2.0140476 3.0210714 0 0 Z " fill="#0C0C0C" transform="translate(163,179)"/>
<path d="M0 0 C1.65 0.33 3.3 0.66 5 1 C4.01 1.495 4.01 1.495 3 2 C3 2.66 3 3.32 3 4 C0.69 3.67 -1.62 3.34 -4 3 C-2.68 2.67 -1.36 2.34 0 2 C0 1.34 0 0.68 0 0 Z " fill="#2D2D2D" transform="translate(205,123)"/>
</svg>
