<?xml version="1.0" encoding="UTF-8"?>
<svg version="1.1" xmlns="http://www.w3.org/2000/svg" width="417" height="223">
<path d="M0 0 C137.61 0 275.22 0 417 0 C417 73.59 417 147.18 417 223 C279.39 223 141.78 223 0 223 C0 149.41 0 75.82 0 0 Z " fill="#060807" transform="translate(0,0)"/>
<path d="M0 0 C10.27777778 3.42592593 10.27777778 3.42592593 14 7 C14.5 10.8125 14.5 10.8125 14 14 C15.65 14 17.3 14 19 14 C19.17015625 13.40832031 19.3403125 12.81664063 19.515625 12.20703125 C22.31163591 3.09025099 22.31163591 3.09025099 26 0 C32.29969495 -0.94495424 36.69047376 0.58495261 42 4 C44.35262492 6.35262492 44.39658378 7.01730987 44.5625 10.25 C44.33717966 20.62975684 37.63449773 29.9994638 30.89453125 37.42578125 C28.89206302 39.08968784 27.54763362 39.610229 25 40 C26.09164435 44.3665774 27.15787884 47.51194222 30 51 C30 51.66 30 52.32 30 53 C30.94875 52.34 31.8975 51.68 32.875 51 C36 49 36 49 38 49 C38.00257813 48.38253906 38.00515625 47.76507813 38.0078125 47.12890625 C38.42771884 37.93295741 42.32718043 32.31327845 48.875 26.0625 C53.70950143 22.07680416 57.9552815 21.36536622 64.125 20.625 C68.95049558 21.25441247 72.93950382 24.25939356 76 28 C76 28.66 76 29.32 76 30 C74.88625 30.226875 73.7725 30.45375 72.625 30.6875 C64.26948757 32.82082232 56.54777711 36.38326841 52 44 C49.71966318 50.21910041 49.52288016 56.40908876 50 63 C50.33 63.66 50.66 64.32 51 65 C56.31637797 65.50632171 58.82517803 64.24708376 63 61 C63.639375 60.505 64.27875 60.01 64.9375 59.5 C66.19610259 58.05854445 66.19610259 58.05854445 65.875 56.1875 C65.0117538 53.86469284 65.0117538 53.86469284 63.4375 51.375 C61.51060029 46.8509746 61.11093749 42.8494319 62 38 C64.19022918 35.17575712 65.83017207 33.58491397 69 32 C71.09375 32.05078125 71.09375 32.05078125 73.5 32.3125 C74.2940625 32.39113281 75.088125 32.46976563 75.90625 32.55078125 C78 33 78 33 80 35 C81.28634771 41.94029462 78.89877618 47.80127773 76 54 C83.05169105 49.67282595 83.96995041 43.68126871 86 36 C86.50497417 34.41153757 87.02376352 32.82733155 87.5625 31.25 C87.91828125 30.19619141 87.91828125 30.19619141 88.28125 29.12109375 C88.5184375 28.42113281 88.755625 27.72117187 89 27 C89.77383499 24.6823642 90.54551394 22.36416962 91.30859375 20.04296875 C91.86881167 18.38763558 92.48818964 16.75240425 93.125 15.125 C94.42396758 10.48583006 94.67586185 5.79383267 95 1 C99.06225548 1.57823096 101.84762346 2.89117737 105.3125 5.0625 C106.19550781 5.61035156 107.07851563 6.15820312 107.98828125 6.72265625 C108.65214844 7.14417969 109.31601562 7.56570312 110 8 C109.56926806 12.91034411 108.85307301 16.53978416 106.82250977 21.08374023 C105.39774161 24.4031244 104.28879362 27.83239984 103.125 31.25 C101.08028794 37.17051908 98.77965494 42.83281084 96.1015625 48.5 C93.72743819 53.88808353 92 59.0990146 92 65 C93.27513763 63.92173635 94.54492569 62.83714481 95.8125 61.75 C96.52019531 61.14671875 97.22789062 60.5434375 97.95703125 59.921875 C101.24389528 56.82983465 103.25847073 53.83976231 104.75390625 49.5859375 C105.05103516 48.74160156 105.34816406 47.89726562 105.65429688 47.02734375 C105.95400391 46.15207031 106.25371094 45.27679688 106.5625 44.375 C106.86607422 43.52292969 107.16964844 42.67085937 107.48242188 41.79296875 C109.51695683 35.93315349 110.93863774 30.10958412 112 24 C116.80668512 24.4471335 119.73263632 25.3482406 123 29 C123.80275332 35.65393307 121.54317519 41.47847769 119.5 47.75 C118.84010364 49.80612496 118.18368664 51.86337081 117.53125 53.921875 C117.23798828 54.82518555 116.94472656 55.72849609 116.64257812 56.65917969 C115.86764151 59.07759381 115.86764151 59.07759381 116 62 C119.67225612 59.27696935 122.65867755 56.85773214 123.51171875 52.21484375 C123.5883453 50.16706537 123.65312329 48.11881484 123.70703125 46.0703125 C124.40495487 38.75607294 129.00913136 31.34528695 134.59375 26.6640625 C139.9859474 22.57261447 145.21124301 20.4965659 152.0390625 20.6796875 C155.38622298 21.22643483 157.47075519 22.83207588 160 25 C161.1640625 27.140625 161.1640625 27.140625 162 29 C160.76636719 29.38478516 160.76636719 29.38478516 159.5078125 29.77734375 C149.80441735 33.1051825 142.49541247 37.55126879 136.875 46.3125 C135.63838865 51.52393356 135.40019124 56.67182867 136 62 C136.66 62.99 137.32 63.98 138 65 C143.42441362 64.56604691 146.76058371 63.45068767 151 60 C152.38868516 57.89960669 152.38868516 57.89960669 153 56 C152.360625 55.071875 151.72125 54.14375 151.0625 53.1875 C147.85149277 48.22503429 147.13512551 43.79974655 148 38 C150.03982845 34.84155595 151.54637437 33.4442364 155.16015625 32.33984375 C159.15443609 31.65301433 161.37350016 31.69314294 165.0625 33.5 C167 36 167 36 167.5625 39.0625 C166.80586977 44.35891158 165.0018565 49.05791678 163 54 C166.465 51.525 166.465 51.525 170 49 C170.6875 51.3125 170.6875 51.3125 171 54 C169.40835553 56.18461005 168.49544979 56.9161003 165.80859375 57.37109375 C164.22533307 57.41543548 162.64199501 57.45709372 161.05859375 57.49609375 C160.37925781 57.66238281 159.69992187 57.82867187 159 58 C157.89129766 59.80448257 157.89129766 59.80448257 157 62 C153.57384983 66.296408 150.22438802 69.55406063 144.7265625 70.65625 C139.67506302 70.79496394 135.98087876 70.45661597 131.375 68.3125 C128.99843059 65.99847189 127.41827014 63.99412585 126 61 C126 60.34 126 59.68 126 59 C125.34 59 124.68 59 124 59 C123.60361328 59.87205078 123.60361328 59.87205078 123.19921875 60.76171875 C121.17011892 64.54893113 118.50426505 67.51012747 115 70 C110.47475393 70.31756113 108.05597712 69.27454262 104.6875 66.4375 C103.800625 65.633125 102.91375 64.82875 102 64 C101.34 64 100.68 64 100 64 C98.66104368 65.66215268 97.32869858 67.32963607 96 69 C93.6875 71.375 93.6875 71.375 91 73 C85.64398721 73 81.97239383 71.59407061 78 68 C76.96499165 64.06696827 76.71216281 61.86351156 78 58 C75.70808151 57.96747064 75.70808151 57.96747064 73 59 C71.55771256 60.49976465 71.55771256 60.49976465 70.1875 62.3125 C66.30075708 67.10680726 62.40206226 69.4362577 56.2890625 70.44921875 C51.37473496 70.75215675 47.91473333 70.52002889 44 67.375 C40.45863765 63.7826828 38 60.16121471 38 55 C37.01 55.66 36.02 56.32 35 57 C34.01 57 33.02 57 32 57 C32.15855469 57.64324219 32.31710938 58.28648437 32.48046875 58.94921875 C33.15671488 62.92025805 33.26268449 66.7907277 33.3125 70.8125 C33.34150391 71.58142578 33.37050781 72.35035156 33.40039062 73.14257812 C33.46167059 78.72848275 32.48505339 83.49364083 29 88 C25.20734025 90.37534373 21.3661733 90.92048057 17 90 C11.67816251 87.03286441 8.68914545 82.84280558 7 77 C6.677623 74.16957676 6.71103526 71.40611436 6.8125 68.5625 C6.82603516 67.83095703 6.83957031 67.09941406 6.85351562 66.34570312 C6.88846126 64.56347578 6.94225195 62.78163427 7 61 C6.27554688 61.80566406 5.55109375 62.61132812 4.8046875 63.44140625 C3.82908658 64.48267261 2.85247025 65.52298824 1.875 66.5625 C1.400625 67.09552734 0.92625 67.62855469 0.4375 68.17773438 C-1.0078125 69.69140625 -1.0078125 69.69140625 -4 72 C-8.57892919 71.8814334 -12.12254665 70.41263764 -16 68 C-17.875 65.3125 -17.875 65.3125 -19 63 C-19.51949219 63.51691406 -20.03898437 64.03382813 -20.57421875 64.56640625 C-21.27160156 65.22511719 -21.96898437 65.88382812 -22.6875 66.5625 C-23.37199219 67.22378906 -24.05648437 67.88507813 -24.76171875 68.56640625 C-27 70 -27 70 -29.5390625 69.83203125 C-34.31042701 68.21885563 -38.14107482 66.28838777 -41 62 C-41.8676709 56.07091553 -39.31939053 51.30569847 -37 46 C-36.07733078 43.87759941 -35.16070097 41.75256352 -34.25 39.625 C-33.82203125 38.64789063 -33.3940625 37.67078125 -32.953125 36.6640625 C-31.77542594 33.84386883 -31.77542594 33.84386883 -32 30 C-32.99 29.67 -33.98 29.34 -35 29 C-35.0928125 30.670625 -35.0928125 30.670625 -35.1875 32.375 C-36.30717901 41.07168495 -41.65894036 50.04035748 -48 56 C-50.68144257 57.44635387 -53.37969545 58.56434072 -56.21484375 59.67578125 C-60.16203032 61.55249408 -62.95053173 64.26856613 -66.02734375 67.328125 C-69.96942064 70.66913274 -74.63602714 70.29049512 -79.6015625 70.203125 C-82.93110855 69.9211439 -84.52104264 69.2664753 -87 67 C-92.33902795 59.83566335 -93.6936669 53.87370116 -93 45 C-91.45427401 36.5197785 -86.60870934 29.87223805 -79.9375 24.5625 C-74.58845242 21.71726193 -69.11281716 19.6706327 -63 21 C-59.98554376 22.63068708 -57.31923954 24.4648738 -55 27 C-55 27.99 -55 28.98 -55 30 C-55.845625 30.21914062 -56.69125 30.43828125 -57.5625 30.6640625 C-66.70628614 33.22016635 -73.64643667 35.94292895 -79 44.0625 C-81.86103835 49.71714482 -81.81460943 55.8089683 -81 62 C-80.34 62.99 -79.68 63.98 -79 65 C-73.57558638 64.56604691 -70.23941629 63.45068767 -66 60 C-64.61131484 57.89960669 -64.61131484 57.89960669 -64 56 C-64.639375 55.2575 -65.27875 54.515 -65.9375 53.75 C-69.01830528 49.64225962 -69.43854638 46.21566508 -69.33203125 41.03515625 C-68.70136584 37.16954825 -66.9322641 35.4535271 -64 33 C-59.49892941 31.47793816 -56.2194686 31.40270926 -51.9375 33.5 C-50 36 -50 36 -49.5 39.125 C-50.12373748 43.9589655 -51.44258273 48.39264056 -53 53 C-45.17579671 46.06999137 -41.78871839 36.52822369 -38 27 C-38.78375 26.71125 -39.5675 26.4225 -40.375 26.125 C-43 25 -43 25 -45 23 C-45.1875 19.9375 -45.1875 19.9375 -45 17 C-44 16 -44 16 -41.125 15.6875 C-38 16 -38 16 -36.1875 17.8125 C-35 20 -35 20 -34 23 C-31.61016018 24.10712785 -31.61016018 24.10712785 -28.75 24.9375 C-20.58861671 27.76422911 -20.58861671 27.76422911 -18 31 C-18.39870145 36.99615703 -20.26503551 42.54482268 -22.0625 48.25 C-22.61969113 50.02485139 -23.1732442 51.80085017 -23.72265625 53.578125 C-23.96765869 54.35575195 -24.21266113 55.13337891 -24.46508789 55.93457031 C-25.12535598 58.12843548 -25.12535598 58.12843548 -25 61 C-23.6696875 59.9790625 -23.6696875 59.9790625 -22.3125 58.9375 C-21.81363281 58.55464844 -21.31476563 58.17179687 -20.80078125 57.77734375 C-15.67330625 52.71660378 -12.8809816 46.94335602 -10.4375 40.25 C-10.14157959 39.46447754 -9.84565918 38.67895508 -9.54077148 37.86962891 C-8.68277436 35.58367103 -7.83913153 33.29293978 -7 31 C-6.33871094 29.20949219 -6.33871094 29.20949219 -5.6640625 27.3828125 C-4.76423829 24.9258457 -3.87452786 22.46605994 -3 20 C-4.8141927 20.28094582 -6.62635001 20.57506433 -8.4375 20.875 C-9.44683594 21.03742188 -10.45617187 21.19984375 -11.49609375 21.3671875 C-12.32238281 21.57601562 -13.14867187 21.78484375 -14 22 C-14.33 22.66 -14.66 23.32 -15 24 C-16.65 23.67 -18.3 23.34 -20 23 C-20.33 21.35 -20.66 19.7 -21 18 C-18.01664332 15.0571938 -16.4634017 14.0480209 -12.23046875 13.609375 C-10.88225415 13.63568163 -9.53430482 13.68298196 -8.1875 13.75 C-7.49462891 13.76804687 -6.80175781 13.78609375 -6.08789062 13.8046875 C-4.39132336 13.85148936 -2.69547524 13.92322376 -1 14 C-0.67 9.38 -0.34 4.76 0 0 Z " fill="#F1F1F1" transform="translate(207,92)"/>
<path d="M0 0 C3.36574081 1.962185 5.92293579 4.44668743 8.5625 7.3125 C9.5525 7.9725 10.5425 8.6325 11.5625 9.3125 C12.27961359 15.16892767 10.61423001 19.92670872 8.5625 25.3125 C9.11679688 24.57515625 9.67109375 23.8378125 10.2421875 23.078125 C12.54381005 20.33477692 14.87241892 18.2641455 17.6875 16.0625 C18.55632812 15.37671875 19.42515625 14.6909375 20.3203125 13.984375 C24.2431752 11.05931361 26.49136879 11.156718 31.234375 11.73046875 C35.00788873 12.67384718 36.86685559 14.54946447 39.5625 17.3125 C41.40375176 20.99500353 41.29928776 24.37413091 40.5625 28.3125 C35.86962212 40.34730099 28.86432413 49.89736935 17.5625 56.3125 C13.92467368 57.52510877 11.38514001 57.70794552 7.5625 57.3125 C4.625 55 4.625 55 2.5625 52.3125 C2.5625 51.3225 2.5625 50.3325 2.5625 49.3125 C4.19010417 48.95442708 5.81770833 48.59635417 7.4453125 48.23828125 C13.3468892 45.65770251 17.11266291 40.70268774 20.6875 35.5625 C21.33706665 34.64041748 21.33706665 34.64041748 21.99975586 33.69970703 C25.98382712 27.92299289 28.9619674 22.17192543 30.5625 15.3125 C22.12291545 16.25023162 17.89162841 20.99744033 12.5625 27.3125 C-0.43678232 44.52776577 -8.73097784 63.80133913 -10.4375 85.3125 C-15.98963732 84.16378193 -19.87706992 82.87186006 -24.4375 79.3125 C-26.36523222 75.45703555 -26.01159019 71.14958862 -24.75390625 67.125 C-24.08481415 65.48142106 -23.39362562 63.84676185 -22.6875 62.21875 C-21.2827671 58.95274602 -20.0454984 55.64720022 -18.8125 52.3125 C-16.88730884 47.13362695 -14.92490153 41.97024776 -12.93359375 36.81640625 C-12.49160645 35.67236328 -12.04961914 34.52832031 -11.59423828 33.34960938 C-10.71544902 31.07810033 -9.83498497 28.80723833 -8.95263672 26.53710938 C-4.30931833 15.72455874 -4.30931833 15.72455874 -2.4375 4.3125 C-7.88885697 3.4738297 -10.91601892 5.41181201 -15.19140625 8.46875 C-20.37019506 12.71986012 -25.25550137 17.89485698 -27.4375 24.3125 C-27.65952699 27.66308914 -27.61633946 30.96091596 -27.4375 34.3125 C-32.95408831 32.73633191 -37.35981424 30.39018576 -41.4375 26.3125 C-41.88249251 21.86257491 -41.93599479 19.35283695 -40 15.3125 C-30.35887971 4.02533479 -15.41047261 -7.23647668 0 0 Z " fill="#F6F6F6" transform="translate(83.4375,80.6875)"/>
<path d="M0 0 C-0.26193199 11.52500774 -9.50085797 21.95247464 -17 30 C-19.81060852 32.55682897 -21.99360283 33.9124872 -25.875 34.25 C-26.57625 34.1675 -27.2775 34.085 -28 34 C-26.47793991 36.62901288 -25.15634036 38.84365964 -23 41 C-16.11756855 41.82589177 -11.59172264 39.51346222 -6.11328125 35.6796875 C-2.06897854 32.46880943 0.25009183 29.08559565 2.80078125 24.63671875 C4 23 4 23 6.8125 22 C7.534375 22 8.25625 22 9 22 C8.37699963 25.40727362 7.04680814 27.50341831 5.0625 30.3125 C0.98243143 36.83865284 0.58333094 43.45692756 0 51 C-0.495 49.02 -0.495 49.02 -1 47 C-1.94875 47.185625 -2.8975 47.37125 -3.875 47.5625 C-7 48 -7 48 -9 47 C-8.34 48.65 -7.68 50.3 -7 52 C-12.30479934 52 -13.18982627 50.4637943 -17 47 C-18.10636395 49.39068734 -18.10636395 49.39068734 -19 52 C-18.67 52.66 -18.34 53.32 -18 54 C-14.535 53.505 -14.535 53.505 -11 53 C-11.57344937 55.86724686 -11.8614515 56.8614515 -14 59 C-17.125 59.125 -17.125 59.125 -20 59 C-19.87625 60.36125 -19.87625 60.36125 -19.75 61.75 C-20 65 -20 65 -21.8125 67.375 C-24 69 -24 69 -27 69 C-27.33 70.32 -27.66 71.64 -28 73 C-30.3125 73.6875 -30.3125 73.6875 -33 74 C-34.5625 72.625 -34.5625 72.625 -36 71 C-38.04755189 70.38248818 -38.04755189 70.38248818 -40 70 C-43.53144585 53.68625558 -34.20844347 35.16842637 -25.625 21.625 C-21.646632 15.56207616 -17.11998517 10.12968211 -12 5 C-11.443125 4.43152344 -10.88625 3.86304687 -10.3125 3.27734375 C-6.93173538 0.11668099 -4.573442 -0.54445738 0 0 Z " fill="#0E100F" transform="translate(114,96)"/>
<path d="M0 0 C0.33 1.32 0.66 2.64 1 4 C0.32453125 4.08636719 -0.3509375 4.17273438 -1.046875 4.26171875 C-6.76376846 5.15819476 -6.76376846 5.15819476 -11.625 8.125 C-13.71427908 12.49349263 -13.8070075 16.41449189 -12.38671875 20.96484375 C-11.19051919 23.86639447 -9.74084744 26.38872884 -8 29 C-11.84215006 34.08519861 -15.10722372 37.36629223 -21.6875 38.4375 C-24 38 -24 38 -25.609375 36.35546875 C-28.38946454 31.64649686 -27.73250397 26.26071031 -27 21 C-24.01830859 12.99421316 -18.47405928 7.66114157 -10.88671875 3.97265625 C-7.20509481 2.46811313 -3.9742989 1.62740948 0 2 C0 1.34 0 0.68 0 0 Z " fill="#0D0E0E" transform="translate(152,120)"/>
<path d="M0 0 C0.33 1.32 0.66 2.64 1 4 C0.32453125 4.09796875 -0.3509375 4.1959375 -1.046875 4.296875 C-4.93929188 4.94936107 -8.21136588 5.53057493 -11.625 7.5625 C-13.76524562 11.35657177 -13.71602854 14.75249091 -13 19 C-11.92121854 21.83966241 -10.55476215 24.3962417 -9 27 C-8.67 27.66 -8.34 28.32 -8 29 C-11.84215006 34.08519861 -15.10722372 37.36629223 -21.6875 38.4375 C-24 38 -24 38 -25.6171875 36.33203125 C-28.23638217 31.91491481 -27.56195728 26.96182737 -27 22 C-25.05383885 15.13051453 -20.04301937 9.52789988 -14.05078125 5.78125 C-9.53785582 3.44055783 -4.78145846 1.70766373 0 0 Z " fill="#0D0F0E" transform="translate(369,120)"/>
<path d="M0 0 C0.33 0.66 0.66 1.32 1 2 C0.195625 2.45375 -0.60875 2.9075 -1.4375 3.375 C-4.08856572 4.74725665 -4.08856572 4.74725665 -5 7 C-5.57507238 13.14885084 -5.21356233 17.60121528 -2 23 C-1.63413243 24.32477538 -1.29420936 25.65749125 -1 27 C-2.28935919 28.14842923 -3.58156579 29.29366227 -4.875 30.4375 C-5.59429687 31.07558594 -6.31359375 31.71367187 -7.0546875 32.37109375 C-10.39109598 35.16483338 -12.67870326 35.36010806 -17 35 C-20.48329395 29.77505908 -19.52977568 22.86202687 -18.4375 16.8125 C-16.67189889 10.87033901 -12.55085877 6.53348569 -7.31640625 3.38671875 C-4.90494491 2.1724368 -2.49009565 1.04213259 0 0 Z " fill="#0B0D0C" transform="translate(275,123)"/>
<path d="M0 0 C0 2.31 0 4.62 0 7 C2.64 7.33 5.28 7.66 8 8 C7.01 9.485 7.01 9.485 6 11 C3.03 10.505 3.03 10.505 0 10 C0.66 11.65 1.32 13.3 2 15 C-3.30479934 15 -4.18982627 13.4637943 -8 10 C-8.66 12.64 -9.32 15.28 -10 18 C-7.36 17.34 -4.72 16.68 -2 16 C-2 17.32 -2 18.64 -2 20 C-4 22 -4 22 -7.625 22.125 C-8.73875 22.08375 -9.8525 22.0425 -11 22 C-10.87625 23.36125 -10.87625 23.36125 -10.75 24.75 C-11 28 -11 28 -12.625 30.4375 C-15 32 -15 32 -18.0625 32.0625 C-21 31 -21 31 -23 28.8125 C-24.29992805 25.15645236 -23.57691102 23.46920425 -22 20 C-21 19 -21 19 -17.4375 18.9375 C-16.303125 18.958125 -15.16875 18.97875 -14 19 C-14 16.69 -14 14.38 -14 12 C-14.99 12.66 -15.98 13.32 -17 14 C-17.66 13.67 -18.32 13.34 -19 13 C-17.72911014 10.45822028 -16.61436461 9.20822041 -13.90234375 8.2890625 C-10.53336078 7.53309559 -7.46099469 7 -4 7 C-3.87625 6.030625 -3.7525 5.06125 -3.625 4.0625 C-3.315625 2.5465625 -3.315625 2.5465625 -3 1 C-1 0 -1 0 0 0 Z " fill="#111313" transform="translate(382,141)"/>
<path d="M0 0 C-0.66666667 2.66666667 -1.33333333 5.33333333 -2 8 C0.41645782 8.16687448 0.41645782 8.16687448 3 8 C3.66 7.34 4.32 6.68 5 6 C5.66 7.32 6.32 8.64 7 10 C4.64031256 12.09749995 3.45383006 12.96905704 0.25 13.1875 C-0.4925 13.125625 -1.235 13.06375 -2 13 C-1.896875 13.721875 -1.79375 14.44375 -1.6875 15.1875 C-2 18 -2 18 -4.25 20.8125 C-7 23 -7 23 -11 23 C-10.814375 23.639375 -10.62875 24.27875 -10.4375 24.9375 C-10.293125 25.618125 -10.14875 26.29875 -10 27 C-11 28 -11 28 -13.375 28.25 C-16 28 -16 28 -17.8125 26.625 C-19 25 -19 25 -19 23 C-20.32 23 -21.64 23 -23 23 C-23.33 20.69 -23.66 18.38 -24 16 C-21.6568787 16.25561323 -19.32156597 16.59270772 -17 17 C-16.67 17.66 -16.34 18.32 -16 19 C-15.896875 17.906875 -15.79375 16.81375 -15.6875 15.6875 C-15 12 -15 12 -13.8125 10.0625 C-11.19357381 8.52726741 -8.97085195 8.8019432 -6 9 C-6.061875 8.071875 -6.12375 7.14375 -6.1875 6.1875 C-6 3 -6 3 -4.6875 1.125 C-3 0 -3 0 0 0 Z " fill="#111312" transform="translate(231,8)"/>
<path d="M0 0 C1.4540625 0.0309375 1.4540625 0.0309375 2.9375 0.0625 C1.97069846 5.3549909 0.41846553 10.44773365 -1.09375 15.60546875 C-1.84954482 18.30255915 -2.46265127 20.94392136 -3 23.6875 C-4.0625 27.0625 -4.0625 27.0625 -6.625 29.0625 C-7.429375 29.7225 -8.23375 30.3825 -9.0625 31.0625 C-9.22425527 33.00356319 -9.38200136 34.94552585 -9.484375 36.890625 C-10.66504512 41.32611544 -14.68194258 44.16707953 -18.0625 47.0625 C-20.86310551 38.66068347 -13.29126876 24.8994542 -10.1159668 16.67114258 C-9.35895997 14.7084122 -8.61153758 12.74221304 -7.86523438 10.77539062 C-3.77883663 0.07711911 -3.77883663 0.07711911 0 0 Z " fill="#131514" transform="translate(222.0625,109.9375)"/>
<path d="M0 0 C0.6875 1.75 0.6875 1.75 1 4 C-0.4375 6.25 -0.4375 6.25 -2 8 C-0.35 7.01 1.3 6.02 3 5 C3.6875 6.8125 3.6875 6.8125 4 9 C2.9375 10.75 2.9375 10.75 1 12 C-2.09501208 12.25265405 -4.20129973 12.39935013 -7 11 C-6.731875 12.051875 -6.46375 13.10375 -6.1875 14.1875 C-6 18 -6 18 -8.4375 20.9375 C-9.7059375 21.9584375 -9.7059375 21.9584375 -11 23 C-14.68069887 21.46356148 -16.98775204 19.21849055 -19.75 16.375 C-20.54921875 15.55773437 -21.3484375 14.74046875 -22.171875 13.8984375 C-22.77515625 13.27195313 -23.3784375 12.64546875 -24 12 C-23.67 11.01 -23.34 10.02 -23 9 C-22.38125 9.165 -21.7625 9.33 -21.125 9.5 C-19.03936614 10.07634644 -19.03936614 10.07634644 -17 10 C-16.01 9.34 -15.02 8.68 -14 8 C-11.3125 8.375 -11.3125 8.375 -9 9 C-9.0825 7.906875 -9.165 6.81375 -9.25 5.6875 C-9 2 -9 2 -7.3125 0 C-4.44360465 -1.2406034 -2.94358324 -0.89942821 0 0 Z " fill="#111312" transform="translate(341,187)"/>
<path d="M0 0 C0.66 0.99 1.32 1.98 2 3 C0.68 4.65 -0.64 6.3 -2 8 C-1.401875 7.484375 -0.80375 6.96875 -0.1875 6.4375 C0.534375 5.963125 1.25625 5.48875 2 5 C2.99 5.33 3.98 5.66 5 6 C2.125 10.875 2.125 10.875 1 12 C-1.33297433 12.04092937 -3.66705225 12.04241723 -6 12 C-5.896875 13.0725 -5.79375 14.145 -5.6875 15.25 C-6 19 -6 19 -8.5 21.4375 C-9.325 21.953125 -10.15 22.46875 -11 23 C-12.99170383 21.2790132 -14.97585874 19.55061848 -16.94921875 17.80859375 C-18.47507067 16.46293768 -20.0151644 15.13339624 -21.5625 13.8125 C-23 12 -23 12 -22.75 9.75 C-22.5025 9.1725 -22.255 8.595 -22 8 C-21.2575 8.37125 -20.515 8.7425 -19.75 9.125 C-17.08694927 10.30106247 -17.08694927 10.30106247 -14.9375 9.125 C-14.298125 8.75375 -13.65875 8.3825 -13 8 C-11.68 8 -10.36 8 -9 8 C-9.12375 6.6078125 -9.12375 6.6078125 -9.25 5.1875 C-9 2 -9 2 -7.3125 0.0625 C-4.36948861 -1.28969442 -3.01471387 -1.11068406 0 0 Z " fill="#111312" transform="translate(369,18)"/>
<path d="M0 0 C0.625 1.8125 0.625 1.8125 1 4 C0.01 5.485 0.01 5.485 -1 7 C-0.34 7 0.32 7 1 7 C1 6.34 1 5.68 1 5 C1.99 5.33 2.98 5.66 4 6 C2.84826645 8.46800047 1.95216435 10.04783565 0 12 C-3.625 11.625 -3.625 11.625 -7 11 C-6.731875 11.86625 -6.46375 12.7325 -6.1875 13.625 C-5.98486187 17.27248636 -6.14107821 17.70834166 -8.3125 20.375 C-11 23 -11 23 -13 23 C-13 22.34 -13 21.68 -13 21 C-13.58136719 20.73960937 -14.16273437 20.47921875 -14.76171875 20.2109375 C-17.15025497 18.91871022 -18.86044288 17.50719402 -20.8125 15.625 C-21.43769531 15.03976563 -22.06289063 14.45453125 -22.70703125 13.8515625 C-24 12 -24 12 -23.69921875 9.7734375 C-23.46847656 9.18820313 -23.23773438 8.60296875 -23 8 C-20 9.5 -20 9.5 -17 11 C-17 10.34 -17 9.68 -17 9 C-11.25 7.875 -11.25 7.875 -9 9 C-9.0825 7.906875 -9.165 6.81375 -9.25 5.6875 C-9 2 -9 2 -7.3125 0 C-4.44360465 -1.2406034 -2.94358324 -0.89942821 0 0 Z " fill="#111312" transform="translate(64,179)"/>
<path d="M0 0 C0.99 0.66 1.98 1.32 3 2 C1.84826645 4.46800047 0.95216435 6.04783565 -1 8 C0.98 7.34 2.96 6.68 5 6 C4.6875 8.375 4.6875 8.375 4 11 C0.5647952 13.29013653 -0.985331 13.17842973 -5 13 C-4.87625 14.36125 -4.87625 14.36125 -4.75 15.75 C-5 19 -5 19 -6.75 21.4375 C-9 23 -9 23 -11 23 C-13.55742617 21.72128691 -15.1561923 20.17305907 -17 18 C-17 17.34 -17 16.68 -17 16 C-17.61875 15.731875 -18.2375 15.46375 -18.875 15.1875 C-21 14 -21 14 -23 11 C-21.68 10.34 -20.36 9.68 -19 9 C-18.01 9.66 -17.02 10.32 -16 11 C-15.34 10.34 -14.68 9.68 -14 9 C-10.375 9.375 -10.375 9.375 -7 10 C-7.3403125 8.3603125 -7.3403125 8.3603125 -7.6875 6.6875 C-8 3 -8 3 -6.875 1.0625 C-4.38860077 -0.34645957 -2.81938897 -0.35242362 0 0 Z " fill="#111312" transform="translate(91,9)"/>
<path d="M0 0 C0.33 0 0.66 0 1 0 C1 34.65 1 69.3 1 105 C2.98 105 4.96 105 7 105 C6.67 106.32 6.34 107.64 6 109 C4.35 109 2.7 109 1 109 C1 146.62 1 184.24 1 223 C0.67 223 0.34 223 0 223 C0 149.41 0 75.82 0 0 Z " fill="#131414" transform="translate(0,0)"/>
<path d="M0 0 C2.31 0 4.62 0 7 0 C7.08724706 3.4165052 7.14047325 6.83272313 7.1875 10.25 C7.21263672 11.21808594 7.23777344 12.18617188 7.26367188 13.18359375 C7.27817383 14.58544922 7.27817383 14.58544922 7.29296875 16.015625 C7.31653442 17.30388184 7.31653442 17.30388184 7.34057617 18.61816406 C6.93095949 21.48283816 5.886136 22.85063164 4 25 C-0.875 24.125 -0.875 24.125 -2 23 C-2.12801963 20.44556186 -2.18522276 17.93005871 -2.1875 15.375 C-2.19974609 14.67503906 -2.21199219 13.97507813 -2.22460938 13.25390625 C-2.23793283 8.46634576 -1.50908933 4.54516234 0 0 Z " fill="#252626" transform="translate(228,151)"/>
<path d="M0 0 C4.18949262 0.59346249 7.63453386 1.12336834 10.94140625 3.9921875 C13.43037075 8.71295411 11.75633507 14.91880347 11 20 C1.82453638 19.23537803 1.82453638 19.23537803 -1 16 C-1.13117541 13.10519711 -1.06318053 10.65846596 -0.75 7.8125 C-0.68425781 7.06291016 -0.61851562 6.31332031 -0.55078125 5.54101562 C-0.38592263 3.69224399 -0.19541184 1.84579227 0 0 Z " fill="#EEEEEE" transform="translate(322,96)"/>
<path d="M0 0 C3.68069887 1.53643852 5.98775204 3.78150945 8.75 6.625 C9.54921875 7.44226563 10.3484375 8.25953125 11.171875 9.1015625 C12.07679688 10.04128906 12.07679688 10.04128906 13 11 C11.92598892 13.91517292 11.22189824 15.77810176 9 18 C5.71697841 18.35685017 3.62505385 18.29607814 0.625 16.875 C-1 15 -1 15 -1.3125 12.0625 C-1 9 -1 9 -0.4375 6.875 C0.08959405 4.6160255 -0.39185493 3.20452587 -1 1 C-0.67 0.67 -0.34 0.34 0 0 Z " fill="#111313" transform="translate(199,174)"/>
<path d="M0 0 C2.5410844 0.30238374 3.75129114 0.75737204 5.59765625 2.55859375 C6.08105469 3.17863281 6.56445312 3.79867187 7.0625 4.4375 C9.01068086 6.91277489 10.30632886 8.20421924 13 10 C12.64505955 12.62655933 12.27538036 14.57968261 10.8125 16.8125 C8.11075568 18.58260835 6.15326426 18.39415803 3 18 C0.63052323 16.44758419 0.10289676 15.30077516 -0.8125 12.625 C-1 10 -1 10 0.0625 7.4375 C1.30196543 5.02247774 1.30196543 5.02247774 0.125 2.6875 C-0.24625 2.130625 -0.6175 1.57375 -1 1 C-0.67 0.67 -0.34 0.34 0 0 Z " fill="#121413" transform="translate(27,201)"/>
<path d="M0 0 C2 0.25 2 0.25 4 1 C4.33 1.99 4.66 2.98 5 4 C5.66 4 6.32 4 7 4 C8.54296875 5.390625 8.54296875 5.390625 10.1875 7.25 C10.73792969 7.85328125 11.28835938 8.4565625 11.85546875 9.078125 C13 11 13 11 12.78125 13.12109375 C11.67418662 15.78358119 10.56088472 16.68495109 8 18 C4.48116464 17.92818703 2.69385383 17.62670668 0.0625 15.25 C-1.7065529 11.50377032 -0.2544933 8.7634799 1 5 C0.12516085 2.83284443 0.12516085 2.83284443 -1 1 C-0.67 0.67 -0.34 0.34 0 0 Z " fill="#121413" transform="translate(333,40)"/>
<path d="M0 0 C4.89983582 1.39995309 6.89829588 4.08205796 10 8 C10.99 8.66 11.98 9.32 13 10 C11.375 15.75 11.375 15.75 8 18 C4.55552538 17.85648022 2.67574427 17.63069465 0.125 15.25 C-1.84718835 11.30562331 -1.05856139 8.10192538 0 4 C0 2.68 0 1.36 0 0 Z " fill="#111413" transform="translate(56,32)"/>
<path d="M0 0 C3.68069887 1.53643852 5.98775204 3.78150945 8.75 6.625 C9.54921875 7.44226563 10.3484375 8.25953125 11.171875 9.1015625 C12.07679688 10.04128906 12.07679688 10.04128906 13 11 C11.75023244 14.65316671 11.32901247 15.78065836 8 18 C4.70224568 18.50734682 3.44196595 18.31057067 0.6875 16.375 C-1.47226629 13.33532892 -1.38158162 11.66318359 -1 8 C-0.68521554 6.66216607 -0.35412344 5.32796291 0 4 C0 2.68 0 1.36 0 0 Z " fill="#121413" transform="translate(162,67)"/>
<path d="M0 0 C3.85025879 0.60355408 6.86101159 1.76772603 10.3125 3.5625 C11.19550781 4.01753906 12.07851563 4.47257812 12.98828125 4.94140625 C13.98408203 5.46541016 13.98408203 5.46541016 15 6 C15 7.32 15 8.64 15 10 C13.02 10 11.04 10 9 10 C8.855625 10.5775 8.71125 11.155 8.5625 11.75 C8.04166667 13.83333333 7.52083333 15.91666667 7 18 C6.34 18 5.68 18 5 18 C3.77446029 15.56984444 2.56958626 13.13280909 1.375 10.6875 C1.024375 9.99720703 0.67375 9.30691406 0.3125 8.59570312 C-0.6640625 6.57421875 -0.6640625 6.57421875 -2 3 C-1.34 2.01 -0.68 1.02 0 0 Z " fill="#111312" transform="translate(322,53)"/>
<path d="M0 0 C3.63 0 7.26 0 11 0 C11.33 1.98 11.66 3.96 12 6 C14.64 6 17.28 6 20 6 C19.34 7.32 18.68 8.64 18 10 C16.02 10 14.04 10 12 10 C12.99 11.485 12.99 11.485 14 13 C13.01 13.66 12.02 14.32 11 15 C7.04 11.04 3.08 7.08 -1 3 C-0.67 2.01 -0.34 1.02 0 0 Z " fill="#111413" transform="translate(228,0)"/>
<path d="M0 0 C2.72414422 0.97789792 3.8856383 1.42469206 5.4375 3.875 C5.875 7.375 5.875 7.375 5.4375 10.875 C3.8125 12.875 3.8125 12.875 1.4375 13.875 C-1.625 13.875 -1.625 13.875 -4.5625 12.875 C-6.84618427 10.22297956 -7.58353853 8.75861832 -7.5 5.25 C-5.99117809 1.42765117 -4.18539991 -0.20416585 0 0 Z " fill="#111313" transform="translate(71.5625,27.125)"/>
<path d="M0 0 C2.4375 2.1875 2.4375 2.1875 4 5 C3.93073018 7.90933229 3.35813951 9.43451656 1.8125 11.875 C0 13 0 13 -3 12.875 C-7.45454545 11.57575758 -7.45454545 11.57575758 -9 9 C-9.375 5.4375 -9.375 5.4375 -9 2 C-5.50434664 -0.33043558 -4.1134271 -0.58763244 0 0 Z " fill="#121413" transform="translate(45,197)"/>
<path d="M0 0 C0.33 0.66 0.66 1.32 1 2 C1.99 2 2.98 2 4 2 C3.4121352 8.34367536 1.41931343 13.87044863 -0.8125 19.8125 C-1.15603516 20.74642578 -1.49957031 21.68035156 -1.85351562 22.64257812 C-2.88628602 25.43473973 -3.93922853 28.2183668 -5 31 C-5.51892822 32.37937744 -5.51892822 32.37937744 -6.04833984 33.78662109 C-6.38687988 34.66527832 -6.72541992 35.54393555 -7.07421875 36.44921875 C-7.37287842 37.22998779 -7.67153809 38.01075684 -7.97924805 38.81518555 C-9.0668166 41.14301405 -10.39348537 43.00230431 -12 45 C-11.36352687 38.99896765 -9.12278022 33.69576616 -6.9375 28.125 C-6.56044922 27.15046875 -6.18339844 26.1759375 -5.79492188 25.171875 C-4.86835624 22.77922451 -3.93659209 20.38873946 -3 18 C-3.66 18 -4.32 18 -5 18 C-4.42934122 11.58008874 -2.32655091 5.98410537 0 0 Z " fill="#EDEDED" transform="translate(77,100)"/>
<path d="M0 0 C3.5625 0.3125 3.5625 0.3125 5.5 1.4375 C7.09240283 4.24762264 7.01569325 6.14014724 6.5625 9.3125 C4.875 11.75 4.875 11.75 2.5625 13.3125 C-0.26806496 13.24346183 -1.8588777 12.67164487 -4.25 11.1875 C-6.11608417 8.24105131 -5.74577238 5.70349619 -5.4375 2.3125 C-3.4375 0.3125 -3.4375 0.3125 0 0 Z " fill="#121413" transform="translate(176.4375,62.6875)"/>
<path d="M0 0 C0.66 0.33 1.32 0.66 2 1 C1.360625 1.5775 0.72125 2.155 0.0625 2.75 C-1.98223868 4.98062401 -2.58205199 6.07436391 -3 9 C1.65052872 9.26932521 1.65052872 9.26932521 6 8 C6 10.64 6 13.28 6 16 C5.67 14.68 5.34 13.36 5 12 C3.576875 12.2784375 3.576875 12.2784375 2.125 12.5625 C-1 13 -1 13 -3 12 C-2.34 13.65 -1.68 15.3 -1 17 C-5 17 -5 17 -6.921875 15.5390625 C-7.52515625 14.90742188 -8.1284375 14.27578125 -8.75 13.625 C-9.36359375 12.99851563 -9.9771875 12.37203125 -10.609375 11.7265625 C-12 10 -12 10 -12 8 C-12.66 7.67 -13.32 7.34 -14 7 C-13.11248047 6.74476563 -13.11248047 6.74476563 -12.20703125 6.484375 C-7.36342355 4.99889662 -3.77495174 3.53140647 0 0 Z " fill="#171818" transform="translate(108,131)"/>
<path d="M0 0 C1.65 0.33 3.3 0.66 5 1 C4.2884375 1.6496875 4.2884375 1.6496875 3.5625 2.3125 C1.76313043 4.02309613 1.76313043 4.02309613 1 7 C1.721875 6.649375 2.44375 6.29875 3.1875 5.9375 C6.3632425 4.87891917 7.86522663 4.89859314 11 6 C13 9 13 9 12.875 11.5 C11.8152854 14.52775601 10.81626416 15.50903662 8 17 C7.01 16.67 6.02 16.34 5 16 C5.9977758 13.00667261 6.7522025 12.05233685 9 10 C8.38511719 10.10699219 7.77023437 10.21398437 7.13671875 10.32421875 C6.32847656 10.44410156 5.52023437 10.56398437 4.6875 10.6875 C3.88699219 10.81511719 3.08648437 10.94273437 2.26171875 11.07421875 C0 11 0 11 -1.8125 9.71875 C-3 8 -3 8 -2.6875 4.8125 C-2.460625 3.884375 -2.23375 2.95625 -2 2 C-1.34 2 -0.68 2 0 2 C0 1.34 0 0.68 0 0 Z " fill="#111312" transform="translate(344,171)"/>
<path d="M0 0 C0.99 0.33 1.98 0.66 3 1 C2.67 1.99 2.34 2.98 2 4 C1.34 4 0.68 4 0 4 C0 4.66 0 5.32 0 6 C0.62648437 5.97679687 1.25296875 5.95359375 1.8984375 5.9296875 C2.71570313 5.91164063 3.53296875 5.89359375 4.375 5.875 C5.18710938 5.85179687 5.99921875 5.82859375 6.8359375 5.8046875 C9 6 9 6 11 8 C10.77553594 14.17276166 10.77553594 14.17276166 8.125 17 C6 18 6 18 3 17 C3.66 15.68 4.32 14.36 5 13 C5.66 13 6.32 13 7 13 C7 12.01 7 11.02 7 10 C6.278125 10.350625 5.55625 10.70125 4.8125 11.0625 C1.67017428 12.10994191 0.12681731 11.9554164 -3 11 C-4 10 -4 10 -4.3125 7.1875 C-4 4 -4 4 -2 1.625 C-1.34 1.08875 -0.68 0.5525 0 0 Z " fill="#111313" transform="translate(203,28)"/>
<path d="M0 0 C0.99 0.33 1.98 0.66 3 1 C1.79618552 3.49361571 0.54571278 5.68143083 -1 8 C-0.46375 7.67 0.0725 7.34 0.625 7 C3.5929092 5.75035402 5.80799279 5.72243416 9 6 C11 8 11 8 11.375 10.875 C11 14 11 14 9.25 16.4375 C7 18 7 18 4.75 17.75 C4.1725 17.5025 3.595 17.255 3 17 C3 15 3 15 5.5 12.375 C6.325 11.59125 7.15 10.8075 8 10 C7.484375 10.165 6.96875 10.33 6.4375 10.5 C3.24804881 11.1542464 0.24614095 11.12249588 -3 11 C-4 10 -4 10 -4.3125 7.1875 C-4 4 -4 4 -2 1.625 C-1.34 1.08875 -0.68 0.5525 0 0 Z " fill="#111313" transform="translate(374,1)"/>
<path d="M0 0 C3.36016893 1.12005631 4.69064913 2.37211797 7 5 C7 5.66 7 6.32 7 7 C7.66 7 8.32 7 9 7 C9 7.66 9 8.32 9 9 C9.99 9.33 10.98 9.66 12 10 C12.33 10.99 12.66 11.98 13 13 C12 14 12 14 9.05859375 14.09765625 C7.26615234 14.08025391 7.26615234 14.08025391 5.4375 14.0625 C3.64119141 14.04896484 3.64119141 14.04896484 1.80859375 14.03515625 C0.88175781 14.02355469 -0.04507812 14.01195312 -1 14 C-1 3.5 -1 3.5 0 0 Z " fill="#111413" transform="translate(305,209)"/>
<path d="M0 0 C2.1723491 3.25852365 4.07119658 6.59244728 6 10 C4.375 12.0625 4.375 12.0625 2 14 C-1.17442218 13.93521587 -3.19571146 13.46700625 -5.9375 11.875 C-7.67793113 8.80365094 -6.78385655 6.31631617 -6 3 C-3.8614515 0.8614515 -2.86724686 0.57344937 0 0 Z " fill="#191B1A" transform="translate(214,169)"/>
<path d="M0 0 C2.375 0.75 2.375 0.75 3.375 1.75 C4.0587704 7.35691724 2.06243693 11.0229904 -0.625 15.75 C-2.54296875 15.3828125 -2.54296875 15.3828125 -4.625 14.75 C-6.53551583 11.6567839 -6.62628279 9.77480063 -6.4375 6.125 C-5.625 2.75 -5.625 2.75 -4.375 0.75 C-2.625 -0.25 -2.625 -0.25 0 0 Z " fill="#171918" transform="translate(365.625,128.25)"/>
<path d="M0 0 C0 2.31 0 4.62 0 7 C2.64 7.33 5.28 7.66 8 8 C7.01 9.485 7.01 9.485 6 11 C3.03 10.505 3.03 10.505 0 10 C0.66 11.65 1.32 13.3 2 15 C-2 15 -2 15 -4.75 12.5 C-5.4925 11.675 -6.235 10.85 -7 10 C-7.61875 10.309375 -8.2375 10.61875 -8.875 10.9375 C-10.25 11.625 -11.625 12.3125 -13 13 C-13.33 12.34 -13.66 11.68 -14 11 C-14.99 11.99 -15.98 12.98 -17 14 C-17.66 13.67 -18.32 13.34 -19 13 C-17.72911014 10.45822028 -16.61436461 9.20822041 -13.90234375 8.2890625 C-10.53336078 7.53309559 -7.46099469 7 -4 7 C-3.87625 6.030625 -3.7525 5.06125 -3.625 4.0625 C-3.41875 3.051875 -3.2125 2.04125 -3 1 C-1 0 -1 0 0 0 Z " fill="#1B1D1D" transform="translate(382,141)"/>
<path d="M0 0 C0.33 0.66 0.66 1.32 1 2 C1.99 1.67 2.98 1.34 4 1 C2.59095794 5.38368642 1.12025131 9.72270836 -0.53515625 14.01953125 C-0.80634277 14.7259375 -1.0775293 15.43234375 -1.35693359 16.16015625 C-1.90496355 17.5803303 -2.45856473 18.99836866 -3.01806641 20.4140625 C-4.34952755 23.87065981 -5 26.24167997 -5 30 C-6.98 30 -8.96 30 -11 30 C-9.00230489 23.67396549 -6.66753901 17.54226665 -4.15771484 11.40600586 C-2.6259224 7.64385628 -1.24166539 3.86757977 0 0 Z " fill="#E4E4E4" transform="translate(71,116)"/>
<path d="M0 0 C4.875 0.875 4.875 0.875 6 2 C6.52981234 8.25178564 5.91249232 11.1093846 2 16 C-1.875 14.25 -1.875 14.25 -3 12 C-3.46601942 4.77669903 -3.46601942 4.77669903 -1.5 1.5 C-1.005 1.005 -0.51 0.51 0 0 Z " fill="#101211" transform="translate(276,128)"/>
<path d="M0 0 C1.1446875 0.3403125 1.1446875 0.3403125 2.3125 0.6875 C2.86603075 11.24558656 2.86603075 11.24558656 -0.6875 15.6875 C-2.5625 15.5 -2.5625 15.5 -4.6875 14.6875 C-6.59801583 11.5942839 -6.68878279 9.71230063 -6.5 6.0625 C-5.6875 2.6875 -5.6875 2.6875 -4.4375 0.6875 C-2.6875 -0.3125 -2.6875 -0.3125 0 0 Z " fill="#121413" transform="translate(148.6875,128.3125)"/>
<path d="M0 0 C1.65 0.33 3.3 0.66 5 1 C4.01 1.33 3.02 1.66 2 2 C2 3.32 2 4.64 2 6 C4.97 5.34 7.94 4.68 11 4 C12.625 6.25 12.625 6.25 14 9 C13.13106227 11.95438828 11.48813961 14.18174413 9 16 C6.8125 15.6875 6.8125 15.6875 5 15 C5 14.34 5 13.68 5 13 C6.32 12.67 7.64 12.34 9 12 C9.33 10.68 9.66 9.36 10 8 C9.278125 8.350625 8.55625 8.70125 7.8125 9.0625 C4.64633734 10.11788755 3.14082715 10.01864664 0 9 C-0.66 8.34 -1.32 7.68 -2 7 C-1.6730244 4.38419521 -1.17960932 2.35921863 0 0 Z " fill="#141615" transform="translate(66,164)"/>
<path d="M0 0 C0.66 0 1.32 0 2 0 C3.12229817 8.1767438 -0.49789183 14.31089213 -5 21 C-7.234375 22.88671875 -7.234375 22.88671875 -9 24 C-8.50341703 18.33895411 -7.45489316 14.12325529 -5 9 C-4.34 9 -3.68 9 -3 9 C-2.814375 7.329375 -2.814375 7.329375 -2.625 5.625 C-2 2 -2 2 0 0 Z " fill="#191A1A" transform="translate(244,100)"/>
<path d="M0 0 C2.31243792 -0.02685412 4.6249627 -0.04632841 6.9375 -0.0625 C8.22527344 -0.07410156 9.51304688 -0.08570313 10.83984375 -0.09765625 C14 -0 14 -0 15 1 C14.6496063 7.30708661 14.6496063 7.30708661 12.125 10 C10 11 10 11 7 10 C7 9.01 7 8.02 7 7 C7.99 6.67 8.98 6.34 10 6 C10.33 5.01 10.66 4.02 11 3 C9.741875 3.37125 8.48375 3.7425 7.1875 4.125 C5.04296875 4.7578125 5.04296875 4.7578125 3 5 C2.01 4.34 1.02 3.68 0 3 C0 2.01 0 1.02 0 0 Z " fill="#111313" transform="translate(93,0)"/>
<path d="M0 0 C0.66 0.66 1.32 1.32 2 2 C1.67247849 7.45869175 -0.54262447 12.35930908 -2.5625 17.375 C-2.89185547 18.20644531 -3.22121094 19.03789062 -3.56054688 19.89453125 C-4.36844762 21.93184618 -5.1817011 23.96684442 -6 26 C-6.99 26 -7.98 26 -9 26 C-3.30245232 3.30245232 -3.30245232 3.30245232 0 0 Z " fill="#B8B8B8" transform="translate(214,114)"/>
<path d="M0 0 C2.31 0.33 4.62 0.66 7 1 C7.66 2.98 8.32 4.96 9 7 C10.65 7.33 12.3 7.66 14 8 C13.67 9.32 13.34 10.64 13 12 C11.375 12.8125 11.375 12.8125 9 13 C5.875 10.625 5.875 10.625 3 8 C2.34 7.67 1.68 7.34 1 7 C0.59270772 4.67843403 0.25561323 2.3431213 0 0 Z " fill="#121413" transform="translate(350,166)"/>
<path d="M0 0 C1.98 0.66 3.96 1.32 6 2 C6.25 9.625 6.25 9.625 4 13 C2.35 12.67 0.7 12.34 -1 12 C-1.02698189 10.37509046 -1.04638757 8.75005367 -1.0625 7.125 C-1.07410156 6.22007812 -1.08570313 5.31515625 -1.09765625 4.3828125 C-1 2 -1 2 0 0 Z " fill="#0A0B0B" transform="translate(228,163)"/>
<path d="M0 0 C0.33 0.66 0.66 1.32 1 2 C1.66 2 2.32 2 3 2 C3 2.66 3 3.32 3 4 C4.32 3.67 5.64 3.34 7 3 C7.226875 3.94875 7.45375 4.8975 7.6875 5.875 C8.69083714 9.19323388 8.69083714 9.19323388 11.625 10.375 C12.40875 10.58125 13.1925 10.7875 14 11 C13.01 12.485 13.01 12.485 12 14 C7.25 13.25 7.25 13.25 5 11 C3.68 10.67 2.36 10.34 1 10 C0.67 6.7 0.34 3.4 0 0 Z " fill="#171918" transform="translate(73,156)"/>
<path d="M0 0 C0.66 0 1.32 0 2 0 C2.33 1.98 2.66 3.96 3 6 C5.31 6.66 7.62 7.32 10 8 C9.34 9.65 8.68 11.3 8 13 C7.27296875 12.45859375 7.27296875 12.45859375 6.53125 11.90625 C1.39044589 8.34723177 -1.7706996 7.44381246 -8 8 C-8.66 6.35 -9.32 4.7 -10 3 C-8.68 2.67 -7.36 2.34 -6 2 C-5.34 3.32 -4.68 4.64 -4 6 C-3.01 6 -2.02 6 -1 6 C-0.67 4.02 -0.34 2.04 0 0 Z " fill="#171918" transform="translate(274,106)"/>
<path d="M0 0 C-1.49154172 2.98308345 -3.88767054 3.03398795 -6.875 4.07421875 C-9.04200215 5.01829873 -10.44292991 6.04852651 -12.1875 7.625 C-14.99448923 9.99534646 -16.41090926 10.68331552 -20 11 C-15.37099854 3.03811749 -9.48559707 -1.89711941 0 0 Z " fill="#BBBBBB" transform="translate(139,115)"/>
<path d="M0 0 C1.34546706 4.03640117 0.26234027 5.87912773 -1.125 9.875 C-1.35364746 10.53685303 -1.58229492 11.19870605 -1.81787109 11.88061523 C-4.80285967 20.43819541 -7.8508813 28.92960437 -12 37 C-13.16291259 33.51126224 -12.82834674 32.87449261 -11.5234375 29.5703125 C-11.18441406 28.69785889 -10.84539062 27.82540527 -10.49609375 26.92651367 C-10.12613281 26.00201416 -9.75617188 25.07751465 -9.375 24.125 C-9.00761719 23.18567627 -8.64023438 22.24635254 -8.26171875 21.27856445 C-7.52416103 19.39374864 -6.78299339 17.51034116 -6.03808594 15.62841797 C-4.66721054 12.15738211 -3.33271402 8.67335604 -2 5.1875 C-1.33370118 3.45819156 -0.66720497 1.72895903 0 0 Z " fill="#4D4D4D" transform="translate(78,108)"/>
<path d="M0 0 C-1.48005041 2.96010082 -3.82306631 3.03167846 -6.7890625 4.0703125 C-10.27833869 5.53753464 -13.01005167 7.69524816 -16 10 C-16.66 9.67 -17.32 9.34 -18 9 C-16.50314027 4.50942081 -12.89704176 2.3347533 -9 0 C-5.52176885 -1.15941038 -3.54104422 -0.70820884 0 0 Z " fill="#B6B6B6" transform="translate(356,115)"/>
<path d="M0 0 C2.8125 -0.25 2.8125 -0.25 6 0 C7.625 1.9375 7.625 1.9375 9 4 C11.09415804 4.79623822 11.09415804 4.79623822 13 5 C12.67 6.32 12.34 7.64 12 9 C8.62537285 8.45276317 6.91765 7.9451 4 6 C4 5.34 4 4.68 4 4 C2.68 4 1.36 4 0 4 C0 2.68 0 1.36 0 0 Z " fill="#121414" transform="translate(379,0)"/>
<path d="M0 0 C0.99 0.33 1.98 0.66 3 1 C2.04864681 3.79422603 1.08930407 6.58524589 0.125 9.375 C-0.14441406 10.1690625 -0.41382813 10.963125 -0.69140625 11.78125 C-0.95566406 12.54179688 -1.21992188 13.30234375 -1.4921875 14.0859375 C-1.73308105 14.7876709 -1.97397461 15.4894043 -2.22216797 16.21240234 C-3 18 -3 18 -5 20 C-5.66 20 -6.32 20 -7 20 C-5.27068234 12.99102311 -3.16032658 6.49711809 0 0 Z " fill="#A5A5A5" transform="translate(310,114)"/>
<path d="M0 0 C0.33 0.66 0.66 1.32 1 2 C0.21625 2.309375 -0.5675 2.61875 -1.375 2.9375 C-5.19261016 5.93705084 -5.34734749 9.35350378 -6 14 C-6.433125 13.34 -6.86625 12.68 -7.3125 12 C-8.1478125 11.01 -8.1478125 11.01 -9 10 C-9.99 10 -10.98 10 -12 10 C-12.99 10 -13.98 10 -15 10 C-10.2733574 5.51889728 -6.16943702 2.18500894 0 0 Z " fill="#353635" transform="translate(275,123)"/>
<path d="M0 0 C0.66 0.33 1.32 0.66 2 1 C-0.55398281 5.16204606 -2.95054353 8.22931926 -7 11 C-7.66 11 -8.32 11 -9 11 C-10.69774938 12.29352333 -12.36739286 13.62517293 -14 15 C-11.37198148 8.54940909 -5.2026757 4.3630508 0 0 Z " fill="#DFDFDF" transform="translate(106,93)"/>
<path d="M0 0 C0.33 0 0.66 0 1 0 C0.33333333 4.66666667 -0.33333333 9.33333333 -1 14 C-2.98 14 -4.96 14 -7 14 C-6.52269162 12.5410574 -6.04308958 11.08286504 -5.5625 9.625 C-5.29566406 8.81289062 -5.02882812 8.00078125 -4.75390625 7.1640625 C-4 5 -4 5 -3 3 C-2.34 3 -1.68 3 -1 3 C-0.67 2.01 -0.34 1.02 0 0 Z " fill="#E6E6E6" transform="translate(67,132)"/>
<path d="M0 0 C-2.60961791 2.60961791 -5.42342985 3.52485531 -8.80859375 4.90234375 C-11.02199486 6.01101704 -12.36912167 7.1593624 -14 9 C-14.66 8.67 -15.32 8.34 -16 8 C-15.505 7.566875 -15.01 7.13375 -14.5 6.6875 C-12.66781808 5.00259517 -12.66781808 5.00259517 -13 2 C-8.22169095 -0.91360308 -5.44893869 -1.19876651 0 0 Z " fill="#AEAEAE" transform="translate(270,115)"/>
<path d="M0 0 C0.99 0.33 1.98 0.66 3 1 C-0.35581982 6.32302455 -3.04537617 8.91588166 -9 11 C-9.99 11 -10.98 11 -12 11 C-11.21753906 10.37351563 -10.43507813 9.74703125 -9.62890625 9.1015625 C-8.11103516 7.87566406 -8.11103516 7.87566406 -6.5625 6.625 C-5.55316406 5.81289062 -4.54382813 5.00078125 -3.50390625 4.1640625 C-0.96471245 2.24965659 -0.96471245 2.24965659 0 0 Z " fill="#8F8F8F" transform="translate(113,122)"/>
<path d="M0 0 C2 3 2 3 1.609375 5.59375 C1.32578125 6.5528125 1.0421875 7.511875 0.75 8.5 C0.34007812 9.93859375 0.34007812 9.93859375 -0.078125 11.40625 C-1 14 -1 14 -3 17 C-3.33 16.67 -3.66 16.34 -4 16 C-3.52901824 10.34821884 -1.91717519 5.31744817 0 0 Z " fill="#ADADAD" transform="translate(325,134)"/>
<path d="M0 0 C0.66 0.33 1.32 0.66 2 1 C2.99 0.67 3.98 0.34 5 0 C3.80086322 4.39683488 2.5711885 7.09840934 -1 10 C-1.66 10 -2.32 10 -3 10 C-2.01 6.7 -1.02 3.4 0 0 Z " fill="#373938" transform="translate(286,136)"/>
<path d="M0 0 C1.4540625 0.0309375 1.4540625 0.0309375 2.9375 0.0625 C2.9375 2.0625 2.9375 4.0625 2.9375 6.0625 C2.15375 5.85625 1.37 5.65 0.5625 5.4375 C-0.736875 5.251875 -0.736875 5.251875 -2.0625 5.0625 C-2.7225 5.7225 -3.3825 6.3825 -4.0625 7.0625 C-4.10504356 5.06295254 -4.10330783 3.06208364 -4.0625 1.0625 C-3.0625 0.0625 -3.0625 0.0625 0 0 Z " fill="#ACADAC" transform="translate(166.0625,107.9375)"/>
<path d="M0 0 C2.25 0.25 2.25 0.25 4 1 C3.01 2.485 3.01 2.485 2 4 C1.34 4 0.68 4 0 4 C0.33 5.32 0.66 6.64 1 8 C0.01 8.33 -0.98 8.66 -2 9 C-2.66 7.35 -3.32 5.7 -4 4 C-2.25 1.9375 -2.25 1.9375 0 0 Z " fill="#1F2020" transform="translate(239,136)"/>
<path d="M0 0 C0 1.65 0 3.3 0 5 C-1.32 5 -2.64 5 -4 5 C-4.66 3.35 -5.32 1.7 -6 0 C-3.50907189 -1.24546405 -2.58919267 -0.7767578 0 0 Z " fill="#080A09" transform="translate(216,174)"/>
<path d="M0 0 C0.66 0.99 1.32 1.98 2 3 C1.42578125 5.33984375 1.42578125 5.33984375 0.3125 7.9375 C-0.04199219 8.79214844 -0.39648438 9.64679688 -0.76171875 10.52734375 C-1.96412409 12.92836136 -3.3195898 14.91280463 -5 17 C-4.35083537 10.99522721 -2.14204997 5.599219 0 0 Z " fill="#656565" transform="translate(70,128)"/>
<path d="M0 0 C0.33 1.32 0.66 2.64 1 4 C0.31292969 4.12117188 -0.37414062 4.24234375 -1.08203125 4.3671875 C-1.98308594 4.53476563 -2.88414062 4.70234375 -3.8125 4.875 C-5.15248047 5.11863281 -5.15248047 5.11863281 -6.51953125 5.3671875 C-9.22727846 5.91188449 -9.22727846 5.91188449 -12 8 C-12.66 7.34 -13.32 6.68 -14 6 C-13.15695312 5.65066406 -12.31390625 5.30132812 -11.4453125 4.94140625 C-10.34960938 4.48636719 -9.25390625 4.03132813 -8.125 3.5625 C-7.03445313 3.11003906 -5.94390625 2.65757813 -4.8203125 2.19140625 C-3.19441376 1.50456537 -1.57868226 0.78934113 0 0 Z " fill="#464646" transform="translate(369,120)"/>
<path d="M0 0 C0.33 1.32 0.66 2.64 1 4 C0.31292969 4.12117188 -0.37414062 4.24234375 -1.08203125 4.3671875 C-1.98308594 4.53476563 -2.88414062 4.70234375 -3.8125 4.875 C-5.15248047 5.11863281 -5.15248047 5.11863281 -6.51953125 5.3671875 C-9.22727846 5.91188449 -9.22727846 5.91188449 -12 8 C-12.66 7.34 -13.32 6.68 -14 6 C-4.58997722 1.40774487 -4.58997722 1.40774487 0 2 C0 1.34 0 0.68 0 0 Z " fill="#393939" transform="translate(152,120)"/>
<path d="M0 0 C2.0625 0.4375 2.0625 0.4375 4 1 C4.33 2.65 4.66 4.3 5 6 C3.35 5.67 1.7 5.34 0 5 C-0.5625 3.0625 -0.5625 3.0625 -1 1 C-0.67 0.67 -0.34 0.34 0 0 Z " fill="#070909" transform="translate(40,200)"/>
<path d="M0 0 C0.33 0.66 0.66 1.32 1 2 C1.99 2 2.98 2 4 2 C3.67 4.31 3.34 6.62 3 9 C0.525 8.01 0.525 8.01 -2 7 C-1.34 4.69 -0.68 2.38 0 0 Z " fill="#C4C4C4" transform="translate(77,100)"/>
<path d="M0 0 C1.41778293 2.83556587 0.86257622 4.9908706 0.5625 8.125 C0.46066406 9.22070312 0.35882813 10.31640625 0.25390625 11.4453125 C0.17011719 12.28835937 0.08632812 13.13140625 0 14 C-0.33 14 -0.66 14 -1 14 C-1.33 11.36 -1.66 8.72 -2 6 C-3.65 6.66 -5.3 7.32 -7 8 C-6.02133662 6.85373678 -5.04205413 5.70800212 -4.0625 4.5625 C-3.51722656 3.92441406 -2.97195312 3.28632813 -2.41015625 2.62890625 C-1.63204305 1.73008851 -0.84063472 0.84063472 0 0 Z " fill="#1F2020" transform="translate(214,152)"/>
<path d="M0 0 C2.475 0.99 2.475 0.99 5 2 C5 3.32 5 4.64 5 6 C3.35 5.67 1.7 5.34 0 5 C-0.5625 3.0625 -0.5625 3.0625 -1 1 C-0.67 0.67 -0.34 0.34 0 0 Z " fill="#070908" transform="translate(69,31)"/>
<path d="M0 0 C2.97 0.495 2.97 0.495 6 1 C4.02 1.99 4.02 1.99 2 3 C2.20625 3.928125 2.4125 4.85625 2.625 5.8125 C3 9 3 9 1 12 C-0.26237731 9.47524538 -0.09856404 7.68799534 -0.0625 4.875 C-0.05347656 3.96492188 -0.04445313 3.05484375 -0.03515625 2.1171875 C-0.02355469 1.41851562 -0.01195312 0.71984375 0 0 Z " fill="#BBBBBB" transform="translate(322,96)"/>
<path d="M0 0 C2.0625 0.4375 2.0625 0.4375 4 1 C4.33 2.32 4.66 3.64 5 5 C3.68 5.33 2.36 5.66 1 6 C0.34 4.35 -0.32 2.7 -1 1 C-0.67 0.67 -0.34 0.34 0 0 Z " fill="#070908" transform="translate(220,21)"/>
<path d="M0 0 C3.63 0 7.26 0 11 0 C10.01 1.485 10.01 1.485 9 3 C5.5 3.375 5.5 3.375 2 3 C1.34 2.01 0.68 1.02 0 0 Z " fill="#121413" transform="translate(388,0)"/>
<path d="M0 0 C0.66 0.66 1.32 1.32 2 2 C0.68 5.63 -0.64 9.26 -2 13 C-2.99 13 -3.98 13 -5 13 C-4.67 11.35 -4.34 9.7 -4 8 C-3.34 8 -2.68 8 -2 8 C-1.34 5.36 -0.68 2.72 0 0 Z " fill="#DBDBDB" transform="translate(210,127)"/>
<path d="M0 0 C0.66 0 1.32 0 2 0 C1.67 3.3 1.34 6.6 1 10 C-0.65 10.66 -2.3 11.32 -4 12 C-3.690625 11.443125 -3.38125 10.88625 -3.0625 10.3125 C-1.93727674 7.86348466 -1.47463077 5.64437145 -1 3 C-0.67 2.01 -0.34 1.02 0 0 Z " fill="#252525" transform="translate(244,131)"/>
<path d="M0 0 C1.98 0.495 1.98 0.495 4 1 C3.67 3.31 3.34 5.62 3 8 C2.67 7.34 2.34 6.68 2 6 C1.01 6.33 0.02 6.66 -1 7 C-0.67 4.69 -0.34 2.38 0 0 Z " fill="#494949" transform="translate(172,121)"/>
<path d="M0 0 C0.99 0.33 1.98 0.66 3 1 C0.74716687 4.31996462 -1.80800833 6.58443874 -5 9 C-5.66 8.67 -6.32 8.34 -7 8 C-4.69 5.36 -2.38 2.72 0 0 Z " fill="#D8D8D8" transform="translate(255,119)"/>
<path d="M0 0 C1.875 0.25 1.875 0.25 4 1 C5.25 3.0625 5.25 3.0625 6 5 C4.125 5.625 4.125 5.625 2 6 C1.34 5.34 0.68 4.68 0 4 C0 2.68 0 1.36 0 0 Z " fill="#060808" transform="translate(174,66)"/>
<path d="M0 0 C0.33 0.66 0.66 1.32 1 2 C1.99 1.67 2.98 1.34 4 1 C3.34 3.31 2.68 5.62 2 8 C1.01 8 0.02 8 -1 8 C-2 6 -2 6 -1.0625 2.875 C-0.5365625 1.451875 -0.5365625 1.451875 0 0 Z " fill="#D7D7D7" transform="translate(71,116)"/>
<path d="M0 0 C1.875 0.25 1.875 0.25 4 1 C5.25 3.0625 5.25 3.0625 6 5 C4.35 5 2.7 5 1 5 C0.67 3.35 0.34 1.7 0 0 Z " fill="#070908" transform="translate(30,210)"/>
<path d="M0 0 C1.32 0 2.64 0 4 0 C4.33 1.98 4.66 3.96 5 6 C1.83884224 4.63016497 1.0072908 4.0109362 -1 1 C-0.67 0.67 -0.34 0.34 0 0 Z " fill="#070908" transform="translate(49,191)"/>
<path d="M0 0 C1.32 0.66 2.64 1.32 4 2 C4 3.32 4 4.64 4 6 C2.68 5.67 1.36 5.34 0 5 C-0.5625 3.0625 -0.5625 3.0625 -1 1 C-0.67 0.67 -0.34 0.34 0 0 Z " fill="#060807" transform="translate(363,163)"/>
<path d="M0 0 C0.99 0 1.98 0 3 0 C3.33 1.98 3.66 3.96 4 6 C1.525 5.01 1.525 5.01 -1 4 C-0.67 2.68 -0.34 1.36 0 0 Z " fill="#060808" transform="translate(86,155)"/>
<path d="M0 0 C2.31 0.33 4.62 0.66 7 1 C6.34 2.65 5.68 4.3 5 6 C3.02 4.68 1.04 3.36 -1 2 C-0.67 1.34 -0.34 0.68 0 0 Z " fill="#262827" transform="translate(277,113)"/>
<path d="M0 0 C1.9375 0.75 1.9375 0.75 4 2 C4.75 4.125 4.75 4.125 5 6 C3.35 5.67 1.7 5.34 0 5 C0 3.35 0 1.7 0 0 Z " fill="#070908" transform="translate(165,75)"/>
<path d="M0 0 C1.875 0.25 1.875 0.25 4 1 C5.25 3.0625 5.25 3.0625 6 5 C4.35 5 2.7 5 1 5 C0.67 3.35 0.34 1.7 0 0 Z " fill="#070908" transform="translate(336,49)"/>
<path d="M0 0 C0.66 0.33 1.32 0.66 2 1 C0.71283353 2.00578589 -0.57988658 3.00446798 -1.875 4 C-2.95394531 4.8353125 -2.95394531 4.8353125 -4.0546875 5.6875 C-6 7 -6 7 -8 7 C-7.67 5.68 -7.34 4.36 -7 3 C-6.401875 2.87625 -5.80375 2.7525 -5.1875 2.625 C-2.73768652 2.04524015 -2.73768652 2.04524015 0 0 Z " fill="#CECECE" transform="translate(107,130)"/>
<path d="M0 0 C0.66 0.66 1.32 1.32 2 2 C-0.52788007 4.79872437 -2.20411134 6.45773019 -6 7 C-4.60667426 3.63279613 -3.0210714 2.0140476 0 0 Z " fill="#181A19" transform="translate(264,131)"/>
<path d="M0 0 C0.928125 0.20625 1.85625 0.4125 2.8125 0.625 C1.8125 2.625 1.8125 2.625 -0.03515625 3.2578125 C-0.76605469 3.42023438 -1.49695313 3.58265625 -2.25 3.75 C-2.98347656 3.91757813 -3.71695312 4.08515625 -4.47265625 4.2578125 C-5.03855469 4.37898438 -5.60445313 4.50015625 -6.1875 4.625 C-6.1875 3.635 -6.1875 2.645 -6.1875 1.625 C-3.1875 -0.375 -3.1875 -0.375 0 0 Z " fill="#9B9B9B" transform="translate(353.1875,114.375)"/>
<path d="M0 0 C0.928125 0.20625 1.85625 0.4125 2.8125 0.625 C1.8125 2.625 1.8125 2.625 -0.03515625 3.2578125 C-0.76605469 3.42023438 -1.49695313 3.58265625 -2.25 3.75 C-2.98347656 3.91757813 -3.71695313 4.08515625 -4.47265625 4.2578125 C-5.03855469 4.37898438 -5.60445312 4.50015625 -6.1875 4.625 C-6.1875 3.635 -6.1875 2.645 -6.1875 1.625 C-3.1875 -0.375 -3.1875 -0.375 0 0 Z " fill="#9D9D9D" transform="translate(136.1875,114.375)"/>
<path d="M0 0 C3.16115776 1.36983503 3.9927092 1.9890638 6 5 C4.125 5.625 4.125 5.625 2 6 C1.34 5.34 0.68 4.68 0 4 C0 2.68 0 1.36 0 0 Z " fill="#070908" transform="translate(59,40)"/>
<path d="M0 0 C1.98 0.495 1.98 0.495 4 1 C4.33 2.32 4.66 3.64 5 5 C2 5 2 5 -1 3 C-0.67 2.01 -0.34 1.02 0 0 Z " fill="#070908" transform="translate(355,30)"/>
<path d="M0 0 C1.98 0.495 1.98 0.495 4 1 C4.33 2.32 4.66 3.64 5 5 C2 5 2 5 -1 3 C-0.67 2.01 -0.34 1.02 0 0 Z " fill="#060808" transform="translate(78,22)"/>
<path d="M0 0 C1.98 0 3.96 0 6 0 C6.33 1.65 6.66 3.3 7 5 C6.01 5 5.02 5 4 5 C1.8125 2.5 1.8125 2.5 0 0 Z " fill="#060908" transform="translate(230,0)"/>
<path d="M0 0 C1.9375 0.8125 1.9375 0.8125 4 2 C4.33 2.99 4.66 3.98 5 5 C3.35 5 1.7 5 0 5 C-0.5625 3.0625 -0.5625 3.0625 -1 1 C-0.67 0.67 -0.34 0.34 0 0 Z " fill="#060808" transform="translate(308,218)"/>
<path d="M0 0 C0.66 0.33 1.32 0.66 2 1 C-0.97 3.97 -3.94 6.94 -7 10 C-7 7 -7 7 -4.625 4.4375 C-3.75875 3.633125 -2.8925 2.82875 -2 2 C-1.34 1.34 -0.68 0.68 0 0 Z " fill="#272827" transform="translate(136,127)"/>
<path d="M0 0 C0.66 0 1.32 0 2 0 C2 2.64 2 5.28 2 8 C1.34 6.68 0.68 5.36 0 4 C-0.99 5.32 -1.98 6.64 -3 8 C-2.25 2.25 -2.25 2.25 0 0 Z " fill="#4C4C4C" transform="translate(244,100)"/>
<path d="M0 0 C0.66 0 1.32 0 2 0 C1.67 1.98 1.34 3.96 1 6 C-0.32 6.33 -1.64 6.66 -3 7 C-1.125 1.125 -1.125 1.125 0 0 Z " fill="#1F2020" transform="translate(172,127)"/>
<path d="M0 0 C0.33 0.66 0.66 1.32 1 2 C1.66 2.33 2.32 2.66 3 3 C1.35 5.31 -0.3 7.62 -2 10 C-3 8 -3 8 -2.44140625 6.0546875 C-2.15136719 5.33539063 -1.86132812 4.61609375 -1.5625 3.875 C-1.27503906 3.15054688 -0.98757812 2.42609375 -0.69140625 1.6796875 C-0.46324219 1.12539062 -0.23507813 0.57109375 0 0 Z " fill="#3E3E3E" transform="translate(93,99)"/>
<path d="M0 0 C-0.33 1.98 -0.66 3.96 -1 6 C-2.32 5.67 -3.64 5.34 -5 5 C-5 3.68 -5 2.36 -5 1 C-3 0 -3 0 0 0 Z " fill="#E3E3E3" transform="translate(83,97)"/>
<path d="M0 0 C1.65 0.33 3.3 0.66 5 1 C2.6875 3.5 2.6875 3.5 0 6 C-0.99 6 -1.98 6 -3 6 C-2.505 5.566875 -2.01 5.13375 -1.5 4.6875 C0.33218192 3.00259517 0.33218192 3.00259517 0 0 Z " fill="#888888" transform="translate(257,117)"/>
<path d="M0 0 C0.625 1.875 0.625 1.875 1 4 C-1 6 -1 6 -4 7 C-3.39816251 4.97954558 -2.72693904 2.97888961 -2 1 C-1.34 0.67 -0.68 0.34 0 0 Z " fill="#E4E4E4" transform="translate(77,106)"/>
<path d="M0 0 C2.475 0.495 2.475 0.495 5 1 C5 2.32 5 3.64 5 5 C3.0625 4.1875 3.0625 4.1875 1 3 C0.67 2.01 0.34 1.02 0 0 Z " fill="#060807" transform="translate(326,200)"/>
<path d="M0 0 C1.9375 0.8125 1.9375 0.8125 4 2 C4.33 2.99 4.66 3.98 5 5 C3.35 4.67 1.7 4.34 0 4 C0 2.68 0 1.36 0 0 Z " fill="#060807" transform="translate(202,183)"/>
<path d="M0 0 C1.32 1.65 2.64 3.3 4 5 C1.525 6.485 1.525 6.485 -1 8 C-0.67 5.36 -0.34 2.72 0 0 Z " fill="#2C2C2C" transform="translate(182,146)"/>
<path d="M0 0 C1.65 0 3.3 0 5 0 C5.33 0.99 5.66 1.98 6 3 C4.02 3.33 2.04 3.66 0 4 C0 2.68 0 1.36 0 0 Z " fill="#0C0E0D" transform="translate(68,166)"/>
</svg>
